<svg width="780" height="821" viewBox="0 0 780 821" fill="none" xmlns="http://www.w3.org/2000/svg">
<g clip-path="url(#clip0_227_1173)">
<path d="M653.251 426.497C653.355 377.317 625.853 334.512 585.311 312.662C597.534 293.012 604.623 269.844 604.672 245.019C604.825 173.769 547.032 115.889 475.596 115.741C454.802 115.696 435.148 120.557 417.723 129.218C391.326 107.784 357.67 94.8988 320.982 94.8226C235.993 94.6434 166.952 163.209 166.772 247.967C166.759 254.468 167.154 260.875 167.927 267.165C115.354 272.291 74.2186 316.439 74.1018 370.243C74.0254 405.771 91.8642 437.164 119.119 455.932C113.517 468.638 110.39 482.675 110.359 497.437C110.237 554.758 156.732 601.326 214.206 601.451C222.961 601.469 231.465 600.403 239.596 598.391C262.996 631.084 301.315 652.432 344.665 652.522C408.976 652.656 462.416 605.963 472.551 544.664C488.211 551.425 505.474 555.197 523.623 555.233C595.063 555.385 653.099 497.747 653.247 426.501L653.251 426.497Z" fill="white"/>
<path d="M92.1347 167.518C92.1347 167.518 76.2433 132.794 29.1583 149.275L3.84766 161.636C3.84766 161.636 45.6392 214.019 92.1347 167.524V167.518Z" fill="#35B46F"/>
<path d="M279.868 157.116C279.868 157.116 299.487 140.636 334.02 138.284C334.02 138.284 348.143 140.636 352.073 129.65C352.073 129.65 338.73 190.864 275.164 175.169L279.874 157.116H279.868Z" fill="#35B46F"/>
<path d="M180.188 100.225C180.188 100.225 166.059 40.9763 226.493 22.9238C226.493 22.9238 229.631 97.8673 180.188 100.225Z" fill="#35B46F"/>
<path d="M161.387 52.7428C161.387 52.7428 131.563 79.4229 112.73 46.4671C93.8971 13.5057 75.0586 14.2915 75.0586 14.2915C75.0586 14.2915 141.762 -24.1597 161.387 52.7428Z" fill="#35B46F"/>
<path d="M256.318 624.847C256.318 624.847 374.036 496.538 416.411 467.107C458.792 437.676 558.851 438.855 558.851 438.855C558.851 438.855 698.932 468.286 723.653 522.432C748.375 576.584 773.489 796.317 759.36 804.558C745.231 812.798 406.212 806.129 402.283 803.772C398.359 801.42 399.341 766.69 399.341 766.69L354.019 757.86L259.254 678.993L256.312 624.841L256.318 624.847Z" fill="#CEE799"/>
<path d="M48.7021 788.628C37.1441 780.556 36.1899 763.794 46.844 754.572C76.0055 729.317 141.828 677.826 201.021 670.754C252.366 664.624 356.017 757.474 356.017 757.474C356.017 757.474 398.763 759.966 399.964 771.99C404.674 819.074 127.16 843.414 48.7021 788.628Z" fill="#E5CD9F"/>
<path d="M188.823 715.093C188.823 715.093 213.151 386.27 202.166 330.553C186.808 252.656 160.964 216.366 93.8672 164.572C93.8672 164.572 166.066 184.584 185.685 219.897C185.685 219.897 151.937 88.8372 158.219 58.2334L226.494 280.325C226.494 280.325 268.286 101.394 293.394 73.9283C293.394 73.9283 238.265 296.019 242.969 422.37C247.679 548.72 264.16 721.369 264.16 721.369C264.16 721.369 228.06 717.445 216.289 726.864C216.289 726.864 199.808 709.598 188.823 715.093Z" fill="#D8B495"/>
<path d="M754.555 242.921C747.881 156.06 675.289 87.6621 586.721 87.6621C531.929 87.6621 483.261 113.843 452.522 154.371C439.348 153.102 420.015 156.734 403.085 181.444C378.459 217.38 409.142 258.958 419.038 270.763C425.123 340.728 473.993 398.433 539.355 417.563L538.07 456.109C538.07 456.109 572.115 492.422 598.61 423.906C658.157 419.752 709.16 384.635 735.638 334.547C751.597 327.413 770.985 313.531 775.858 287.384C780.64 261.737 767.359 249.096 754.561 242.915L754.555 242.921Z" fill="#FFF4E1"/>
<path d="M461.16 139.857C461.16 139.857 502.362 152.807 554.157 144.566C554.157 144.566 547.095 175.17 580.057 164.578C613.019 153.985 605.957 153.985 605.957 153.985C605.957 153.985 611.845 184.589 642.45 170.466L647.945 158.869C653.542 147.053 669.377 144.488 678.229 154.109C678.863 154.794 679.492 155.54 680.121 156.337C680.121 156.337 687.182 183.411 714.261 188.12C714.261 188.12 736.625 257.574 724.854 279.937C724.854 279.937 753.106 254.037 750.754 228.143C750.754 228.143 737.804 133.968 660.109 101.013C582.415 68.0511 492.949 98.6605 461.166 139.857H461.16Z" fill="#D8B495"/>
<path d="M701.821 295.039C711.086 280.799 707.053 261.744 692.813 252.479C678.573 243.214 659.518 247.247 650.253 261.487C640.988 275.727 645.02 294.781 659.261 304.047C673.501 313.312 692.555 309.279 701.821 295.039Z" fill="#FFE4B6"/>
<path d="M487.91 264.659C502.74 256.371 508.043 237.63 499.755 222.8C491.466 207.97 472.725 202.667 457.895 210.955C443.065 219.243 437.762 237.984 446.05 252.814C454.338 267.644 473.079 272.947 487.91 264.659Z" fill="#FFE4B6"/>
<path d="M545.925 726.477C543.971 726.477 542.282 725.023 542.029 723.036C540.912 714.082 534.013 692.168 533.94 691.949C533.289 689.878 534.434 687.672 536.506 687.021C538.577 686.364 540.783 687.515 541.434 689.586C541.726 690.512 548.619 712.404 549.826 722.065C550.096 724.22 548.569 726.179 546.413 726.449C546.245 726.471 546.082 726.477 545.919 726.477H545.925Z" fill="#A8D447"/>
<path d="M366.93 674.492C367.093 673.937 367.25 673.403 367.402 672.876L337.342 640.318L334.575 660.077C334.412 661.25 333.722 662.289 332.706 662.901C331.69 663.513 330.449 663.631 329.338 663.226L286.446 647.616L293.53 669.137C293.878 670.193 293.76 671.343 293.21 672.309C292.66 673.274 291.728 673.959 290.639 674.2L263.016 680.291L285.138 694.667C286.204 695.357 286.867 696.525 286.923 697.793C286.973 699.062 286.412 700.28 285.407 701.06L265.884 716.233L293.204 727.959C294.215 728.397 295.001 729.233 295.365 730.277C295.73 731.316 295.641 732.467 295.113 733.432L287.737 747.129L330.404 741.796C330.808 741.746 331.224 741.757 331.628 741.835L351.712 745.669C351.954 743.755 352.268 741.549 352.672 738.995C354.093 729.974 356.327 718.422 358.959 706.471C361.626 694.369 364.455 683.008 366.925 674.487L366.93 674.492Z" fill="#FFF4E1"/>
<path d="M187.681 585.902C177.37 586.581 173.002 591.908 166.39 599.969C165.621 600.907 164.835 601.867 164.015 602.843C155.809 612.65 148.208 622.439 145.357 634.351C145.272 634.704 145.188 635.064 145.115 635.417C141.427 652.712 147.394 670.619 160.311 681.037C162.287 682.631 168.209 685.971 174.176 688.082C180.945 690.478 185.167 690.377 186.351 689.21C187.053 688.519 187.738 687.79 188.406 687.026C188.428 687.004 188.445 686.976 188.467 686.948C208.732 663.664 212.975 608.619 213.015 608.047C213.015 608.047 213.015 608.036 213.015 608.03C213.104 606.829 213.632 605.919 214.592 604.269C215.181 603.247 216.573 600.851 216.669 599.975C216.944 597.106 216.001 591.605 214.861 589.472C212.936 585.852 207.873 584.92 202.209 584.92C201.395 584.92 200.57 584.942 199.739 584.97C199.716 584.97 199.7 584.97 199.677 584.97C197.168 585.071 194.614 585.302 192.223 585.521C190.628 585.666 189.118 585.801 187.687 585.897L187.681 585.902ZM202.899 598.953C204.667 600.211 205.077 602.664 203.82 604.432C202.562 606.2 200.104 606.61 198.341 605.352C192.009 600.839 181.142 606.02 177.493 608.395C176.831 608.827 176.09 609.029 175.349 609.029C174.063 609.029 172.806 608.4 172.054 607.25C170.869 605.437 171.375 603.006 173.188 601.816C173.906 601.344 190.892 590.393 202.899 598.948V598.953Z" fill="#FFF4E1"/>
<path d="M627.837 244.151C635.684 245.936 643.492 241.024 645.277 233.177C647.062 225.33 642.151 217.521 634.303 215.736C626.456 213.951 618.647 218.863 616.862 226.71C615.077 234.558 619.989 242.366 627.837 244.151Z" fill="#08394A"/>
<path d="M503.335 205.398C501.55 213.245 506.462 221.054 514.309 222.839C522.157 224.624 529.965 219.712 531.75 211.865C533.535 204.017 528.623 196.209 520.776 194.424C512.928 192.639 505.12 197.551 503.335 205.398Z" fill="#08394A"/>
<path d="M444.844 158.913C445.54 159.412 446.337 159.648 447.129 159.648C448.352 159.648 449.559 159.076 450.323 158.009C466.989 134.775 489.498 116.117 515.415 104.043C542.107 91.609 571.79 86.5346 601.266 89.3637C622.036 91.3564 641.896 97.0539 660.285 106.293C662.222 107.27 664.585 106.484 665.562 104.548C666.538 102.611 665.752 100.248 663.816 99.2712C644.556 89.5938 623.764 83.6269 602.018 81.5387C571.15 78.5805 540.058 83.8963 512.098 96.9192C484.957 109.56 461.387 129.1 443.935 153.429C442.672 155.191 443.076 157.644 444.838 158.913H444.844Z" fill="#08394A"/>
<path d="M589.608 130.566C588.637 128.624 586.274 127.844 584.331 128.815C550.589 145.745 510.403 144.487 474.944 143.381C474.904 143.381 474.859 143.381 474.82 143.381C472.71 143.381 470.964 145.06 470.896 147.187C470.829 149.354 472.53 151.167 474.702 151.234C483.835 151.521 493.277 151.818 502.853 151.818C531.431 151.818 561.249 149.191 587.857 135.843C589.799 134.872 590.579 132.508 589.608 130.566Z" fill="#08394A"/>
<path d="M630.12 133.827C628.593 132.289 626.101 132.278 624.563 133.81C611.389 146.9 594.964 156.454 577.068 161.439C574.98 162.023 573.757 164.189 574.335 166.277C574.817 168.018 576.395 169.152 578.118 169.152C578.466 169.152 578.82 169.107 579.173 169.006C598.36 163.662 615.969 153.417 630.098 139.378C631.636 137.852 631.647 135.359 630.115 133.821L630.12 133.827Z" fill="#08394A"/>
<path d="M653.855 144.133C651.694 143.919 649.774 145.502 649.566 147.663C648.758 155.96 644.335 163.948 637.733 169.033C636.016 170.358 635.696 172.822 637.02 174.546C637.795 175.55 638.957 176.078 640.136 176.078C640.972 176.078 641.814 175.814 642.533 175.264C650.824 168.876 656.381 158.845 657.391 148.427C657.599 146.266 656.022 144.346 653.86 144.138L653.855 144.133Z" fill="#08394A"/>
<path d="M685.988 156.1C685.477 153.989 683.35 152.693 681.245 153.209C679.134 153.72 677.843 155.847 678.354 157.952C682.912 176.723 699.421 188.433 714.437 192.109C722.189 219.317 727.796 250.617 721.779 279.526C721.335 281.653 722.699 283.73 724.821 284.174C725.091 284.23 725.36 284.258 725.624 284.258C727.448 284.258 729.082 282.984 729.469 281.131C737.463 242.77 726.197 201.102 715.486 169.084C714.796 167.023 712.573 165.918 710.513 166.602C708.453 167.293 707.347 169.516 708.032 171.576C709.272 175.292 710.524 179.143 711.753 183.1C700.493 178.997 689.317 169.802 685.988 156.094V156.1Z" fill="#08394A"/>
<path d="M560.746 276.108C563.575 276.664 566.46 276.939 569.345 276.939C577.631 276.939 585.927 274.688 593.017 270.411C594.875 269.288 595.47 266.875 594.347 265.017C593.224 263.159 590.811 262.564 588.953 263.686C581.049 268.458 571.315 270.181 562.256 268.401C553.196 266.622 544.837 261.357 539.319 253.953C538.023 252.213 535.564 251.853 533.824 253.15C532.084 254.447 531.724 256.905 533.021 258.651C539.69 267.604 549.794 273.97 560.746 276.12V276.108Z" fill="#08394A"/>
<path d="M552.592 246.768C553.748 248.603 556.179 249.148 558.014 247.992C560.434 246.465 568.528 248.199 570.05 250.574C570.802 251.747 572.065 252.381 573.361 252.381C574.086 252.381 574.821 252.179 575.478 251.758C577.302 250.585 577.835 248.16 576.668 246.33C572.778 240.256 559.962 237.461 553.821 241.345C551.986 242.502 551.436 244.932 552.598 246.768H552.592Z" fill="#08394A"/>
<path d="M767.181 245.095C764.56 242.254 761.686 240.099 758.677 238.684C754.164 188.411 728.067 142.747 686.955 113.271C685.192 112.008 682.734 112.413 681.471 114.175C680.208 115.938 680.612 118.391 682.374 119.659C720.994 147.35 745.727 190.006 750.616 237.09C749.297 237.59 748.292 238.785 748.107 240.279C747.843 242.434 749.37 244.393 751.526 244.663C754.933 245.084 758.256 247.026 761.399 250.433C762.539 251.668 763.617 253.06 764.616 254.587C773.861 268.676 774.647 287.913 766.62 303.591C760.013 316.502 747.787 326.606 733.08 331.315C730.773 332.056 728.41 332.651 726.058 333.089C723.925 333.488 722.516 335.542 722.914 337.675C723.268 339.567 724.918 340.886 726.771 340.886C727.006 340.886 727.242 340.864 727.483 340.819C714.517 362.166 696.722 380.505 675.661 394.162C652.163 409.397 625.034 418.479 597.214 420.433C595.244 420.573 593.683 422.15 593.565 424.126C592.953 434.752 588.283 444.553 580.419 451.721C572.56 458.889 562.377 462.645 551.74 462.263C549.416 462.184 547.266 461.202 545.678 459.501C544.095 457.8 543.264 455.589 543.343 453.27L544.381 423.43C548.58 424.121 554.771 424.985 559.329 424.985C560.149 424.985 560.912 424.957 561.603 424.895C563.764 424.699 565.358 422.79 565.167 420.629C564.976 418.468 563.068 416.862 560.901 417.065C556.253 417.48 545.481 415.701 541.513 414.943C504.156 404.76 471.329 381.566 449.06 349.615C426.517 317.271 416.228 277.815 420.079 238.516C421.763 221.328 426.051 204.651 432.815 188.945C433.674 186.952 432.754 184.639 430.761 183.78C428.768 182.922 426.455 183.842 425.597 185.835C418.507 202.288 414.022 219.751 412.254 237.747C408.223 278.904 419.001 320.223 442.611 354.106C465.356 386.747 498.632 410.66 536.573 421.712L535.484 452.99C535.332 457.408 536.91 461.623 539.924 464.856C542.944 468.09 547.036 469.959 551.459 470.11C552.032 470.133 552.605 470.139 553.172 470.139C565.246 470.139 576.737 465.693 585.701 457.52C594.239 449.734 599.622 439.355 601.082 427.999C629.059 425.485 656.25 416.099 679.927 400.752C704.216 385.007 724.357 363.306 738.166 338.001C738.194 337.95 738.216 337.894 738.244 337.838C753.687 332.146 766.474 321.099 773.603 307.172C782.899 289.025 781.944 266.689 771.178 250.281C769.943 248.395 768.59 246.655 767.159 245.106L767.181 245.095Z" fill="#08394A"/>
<path d="M398.438 249.709C399.139 251.045 400.504 251.803 401.918 251.803C402.536 251.803 403.164 251.657 403.748 251.348C405.668 250.337 406.403 247.957 405.387 246.038C396.524 229.254 395.721 204.954 403.434 186.941C407.211 178.122 414.806 166.738 429.558 162.568C431.646 161.978 432.859 159.806 432.27 157.718C431.68 155.629 429.508 154.411 427.42 155.006C413.381 158.975 402.592 168.95 396.209 183.848C387.626 203.893 388.541 230.977 398.438 249.709Z" fill="#08394A"/>
<path d="M670.451 95.9033C670.557 95.9145 670.664 95.9145 670.771 95.9145C672.797 95.9145 674.52 94.354 674.683 92.2995C675.284 84.8226 673.33 77.267 669.182 71.0194C667.981 69.2119 665.545 68.7179 663.737 69.9192C661.93 71.1204 661.436 73.5566 662.637 75.3641C665.814 80.1523 667.313 85.9396 666.853 91.6652C666.679 93.8263 668.29 95.7236 670.456 95.8977L670.451 95.9033Z" fill="#08394A"/>
<path d="M705.917 103.347C708.022 103.875 710.155 102.589 710.677 100.484C711.199 98.3791 709.919 96.246 707.814 95.724C697.929 93.2654 687.162 94.7136 678.276 99.6982C676.385 100.759 675.711 103.156 676.772 105.048C677.491 106.333 678.827 107.057 680.202 107.057C680.853 107.057 681.51 106.895 682.122 106.552C689.279 102.539 697.957 101.371 705.922 103.353L705.917 103.347Z" fill="#08394A"/>
<path d="M257.754 231.354C244.389 295.772 238.287 325.175 238.287 429.437C238.287 492.867 248.279 599.296 254.235 657.091C254.442 659.111 256.149 660.616 258.136 660.616C258.271 660.616 258.405 660.61 258.546 660.593C260.707 660.369 262.273 658.443 262.054 656.282C256.115 598.639 246.146 492.514 246.146 429.431C246.146 325.978 252.197 296.828 265.45 232.948C266.623 227.307 267.847 221.396 269.132 215.142C279.938 162.478 290.744 109.814 301.544 57.1498C301.948 55.1852 300.803 53.2261 298.889 52.6143C296.975 52.0024 294.909 52.9342 294.101 54.7754C264.552 121.855 243.294 185.005 224.035 263.344C214.57 227.469 204.247 192.936 194.216 159.402C182.793 121.203 170.983 81.7081 160.531 40.4839C160.042 38.5697 158.218 37.3123 156.253 37.5481C154.294 37.7839 152.812 39.4398 152.795 41.4157C152.762 45.7548 152.823 50.1612 152.952 54.6238C151.482 53.591 149.444 53.6752 148.063 54.9326C143.82 58.7833 136.455 59.4962 130.145 56.6671C124.627 54.1916 119.676 49.4259 115.012 42.1005C114.377 41.1069 113.777 40.1078 113.137 39.0525C111.357 36.1055 109.511 33.0631 107.119 30.2957C102.286 24.7048 92.6986 17.3907 84.2842 12.5744C85.1093 12.3948 85.9569 12.2152 86.8326 12.0243C97.0265 9.82389 110.981 6.80954 117.701 8.19603C122.539 9.1952 129.567 12.4341 135.602 16.4532C142.158 20.8148 146.722 25.5693 147.816 29.1674C148.333 30.8626 149.888 31.9572 151.577 31.9572C151.953 31.9572 152.341 31.9011 152.722 31.7888C154.799 31.1601 155.972 28.9653 155.338 26.8884C151.532 14.3538 129.837 2.68375 119.289 0.505777C110.948 -1.2119 96.656 1.86981 85.1711 4.34529C81.0958 5.22658 77.2394 6.05735 74.4551 6.48958C72.3108 6.82077 70.8401 8.83034 71.1769 10.9746C71.278 11.6314 71.5418 12.232 71.9179 12.726C71.9179 14.264 72.8329 15.7291 74.3429 16.3522C82.4766 19.7258 95.7691 29.173 101.175 35.4319C103.134 37.6997 104.728 40.3323 106.412 43.1165C107.046 44.1662 107.703 45.2496 108.382 46.3161C113.895 54.9775 119.963 60.7087 126.929 63.8353C130.555 65.4632 134.4 66.2546 138.128 66.2546C143.797 66.2546 149.203 64.4191 153.183 60.8827C155.372 109.455 166.413 163.511 178.168 205.314C152.84 178.869 124.162 169.854 92.4965 161.939C90.7002 161.49 88.8366 162.355 88.017 164.016C87.1975 165.678 87.6466 167.682 89.0948 168.833C94.4331 173.071 99.4739 177.022 104.352 180.845C135.849 205.521 156.657 221.828 171.275 248.48C192.212 286.639 197.921 337.013 198.264 340.213C198.342 345.619 200.06 468.971 195.681 577.348C194.244 577.454 192.841 577.583 191.505 577.701C189.961 577.842 188.496 577.971 187.16 578.061C173.453 578.964 167.362 586.385 160.306 594.985C159.554 595.9 158.785 596.843 157.982 597.803C149.5 607.935 140.951 618.965 137.707 632.527C137.606 632.948 137.51 633.369 137.42 633.79C133.12 653.953 140.165 674.907 155.366 687.161C158.605 689.777 172.616 697.843 183.158 697.843C184.163 697.843 185.134 697.759 186.066 697.602C185.869 698.68 185.673 699.769 185.482 700.824C184.915 703.939 184.427 706.634 184.18 708.217C183.848 710.361 185.314 712.371 187.458 712.702C187.66 712.735 187.868 712.747 188.064 712.747C189.967 712.747 191.64 711.36 191.943 709.418C192.173 707.936 192.678 705.163 193.212 702.222C193.919 698.337 194.699 694.015 195.115 691.242C215.497 666.684 220.251 615.838 220.79 609.243C220.947 608.951 221.189 608.541 221.379 608.215C222.94 605.521 224.254 603.102 224.478 600.733C224.86 596.775 223.788 589.54 221.784 585.779C218.242 579.127 211.034 577.303 203.557 577.095C207.992 466.732 206.139 341.178 206.122 339.91C206.122 339.797 206.117 339.691 206.105 339.579C205.887 337.384 200.481 285.354 178.168 244.691C162.77 216.624 141.462 199.93 109.202 174.654C109.157 174.62 109.112 174.581 109.062 174.547C120.934 178.072 131.537 182.024 141.546 187.323C158.319 196.203 171.847 208.047 184.124 224.595C185.269 226.133 187.351 226.627 189.063 225.757C190.775 224.887 191.606 222.911 191.034 221.081C178.937 182.4 166.284 127.827 162.085 77.049C170.062 106.042 178.476 134.187 186.689 161.653C198.106 199.829 209.906 239.308 220.358 280.515C220.801 282.261 222.367 283.479 224.164 283.479H224.197C226.005 283.462 227.571 282.216 227.992 280.453C244.641 210.141 262.509 152.47 285.86 94.5177C277.721 134.204 269.576 173.884 261.436 213.565C260.157 219.813 258.927 225.718 257.76 231.354H257.754ZM199.723 584.976C200.554 584.943 201.379 584.926 202.193 584.926C207.862 584.926 212.92 585.863 214.846 589.478C215.985 591.617 216.928 597.112 216.653 599.981C216.558 600.856 215.171 603.253 214.576 604.275C213.622 605.925 213.089 606.84 212.999 608.036C212.999 608.036 212.999 608.047 212.999 608.053C212.959 608.625 208.716 663.675 188.451 686.953C188.429 686.976 188.407 687.004 188.39 687.032C187.722 687.795 187.037 688.525 186.335 689.216C185.151 690.383 180.924 690.484 174.16 688.087C168.193 685.971 162.276 682.637 160.295 681.043C147.378 670.624 141.411 652.718 145.099 635.423C145.178 635.064 145.257 634.71 145.341 634.357C148.192 622.445 155.793 612.656 164 602.849C164.819 601.872 165.605 600.912 166.374 599.975C172.987 591.914 177.359 586.587 187.666 585.908C189.097 585.813 190.607 585.678 192.201 585.532C194.592 585.319 197.147 585.089 199.656 584.982C199.673 584.982 199.695 584.982 199.717 584.982L199.723 584.976Z" fill="#08394A"/>
<path d="M278.475 597.92C277.038 599.548 277.195 602.029 278.823 603.466C279.57 604.123 280.496 604.449 281.422 604.449C282.511 604.449 283.595 604 284.369 603.118C285.166 602.215 364.815 512.11 407.858 478.037C444.182 449.28 519.637 441.275 520.395 441.196C522.556 440.977 524.128 439.047 523.903 436.891C523.684 434.73 521.747 433.158 519.598 433.383C516.409 433.708 441.111 441.696 402.98 471.879C359.386 506.39 279.284 597.011 278.475 597.926V597.92Z" fill="#08394A"/>
<path d="M752.271 636.186C741.611 564.548 731.007 522.241 720.74 510.436C696.878 482.992 621.277 450.721 618.072 449.363C616.073 448.515 613.766 449.447 612.919 451.446C612.071 453.444 613.003 455.751 615.001 456.599C615.77 456.924 692.129 489.515 714.807 515.595C733.449 537.032 751.883 685.285 757.418 740.599C757.62 742.625 759.327 744.135 761.325 744.135C761.454 744.135 761.589 744.13 761.723 744.113C763.885 743.9 765.456 741.974 765.243 739.813C765.193 739.314 760.141 689.08 752.271 636.18V636.186Z" fill="#08394A"/>
<path d="M670.785 664.147C669.084 662.8 666.614 663.086 665.267 664.787C631.143 707.83 575.622 773.753 562.526 778.934C555.329 781.785 513.313 778.984 457.965 771.968C406.07 765.389 366.209 758.12 358.816 755.004C358.642 750.036 361.309 732.405 366.529 708.649C372.075 683.406 377.049 666.864 379.232 663.047C385.413 662.491 414.63 666.577 438.313 669.889C487.817 676.811 520.846 681.11 528.581 677.922C531.152 676.861 537.99 674.049 573.376 623.069C590.576 598.286 606.349 573.862 606.506 573.615C607.685 571.791 607.157 569.36 605.333 568.181C603.509 567.003 601.078 567.53 599.899 569.355C599.742 569.596 584.03 593.93 566.904 618.6C535.301 664.124 527.285 669.951 525.584 670.653C524.4 671.141 519.044 671.989 494.918 669.362C478.594 667.582 458.667 664.798 439.396 662.104C387.742 654.879 378.07 654.02 374.742 656.356C373.602 657.153 372.305 658.545 370.178 664.31L337.48 628.895C336.447 627.778 334.87 627.357 333.422 627.812C331.973 628.267 330.912 629.513 330.705 631.017L327.46 654.183L281.52 637.461C280.106 636.945 278.523 637.287 277.439 638.331C276.362 639.381 275.969 640.953 276.44 642.378L284.697 667.459L252.157 674.633C250.613 674.975 249.417 676.21 249.137 677.765C248.856 679.325 249.535 680.897 250.86 681.762L276.216 698.242L255.794 714.111C254.694 714.964 254.133 716.334 254.307 717.715C254.486 719.096 255.379 720.275 256.653 720.825L286.146 733.488L277.192 750.115C276.496 751.412 276.581 752.983 277.411 754.196C278.152 755.274 279.365 755.902 280.65 755.902C280.813 755.902 280.976 755.891 281.139 755.874L330.75 749.671L350.851 753.505C350.896 753.517 350.941 753.517 350.986 753.522C350.868 757.07 351.294 758.091 351.581 758.776C352.574 761.156 355.308 762.492 363.296 764.496C368.679 765.849 376.229 767.404 385.727 769.116C403.791 772.372 428.36 776.071 453.127 779.265C471.196 781.594 522.053 787.814 549.418 787.814C556.862 787.814 562.57 787.354 565.405 786.231C568.543 784.991 578.086 781.213 626.204 724.647C649.712 697.007 671.2 669.929 671.414 669.659C672.761 667.958 672.475 665.488 670.774 664.141L670.785 664.147ZM352.67 739.001C352.266 741.555 351.951 743.761 351.71 745.675L331.625 741.841C331.221 741.762 330.806 741.751 330.402 741.802L287.734 747.134L295.11 733.438C295.632 732.467 295.722 731.322 295.363 730.283C294.998 729.245 294.218 728.403 293.202 727.965L265.881 716.238L285.405 701.066C286.41 700.285 286.971 699.067 286.92 697.799C286.864 696.53 286.202 695.363 285.135 694.672L263.013 680.296L290.636 674.206C291.72 673.965 292.657 673.28 293.207 672.314C293.757 671.349 293.875 670.198 293.527 669.143L286.443 647.621L329.335 663.232C330.452 663.636 331.687 663.518 332.703 662.906C333.719 662.294 334.404 661.256 334.572 660.083L337.34 640.324L367.399 672.881C367.242 673.403 367.085 673.937 366.928 674.498C364.463 683.019 361.634 694.38 358.962 706.483C356.33 718.433 354.096 729.986 352.675 739.006L352.67 739.001Z" fill="#08394A"/>
<path d="M404.637 528.18L400.713 641.187C400.64 643.354 402.335 645.173 404.502 645.252C404.547 645.252 404.592 645.252 404.643 645.252C406.748 645.252 408.493 643.579 408.566 641.457L412.49 528.449C412.563 526.283 410.868 524.464 408.701 524.385C406.523 524.307 404.716 526.008 404.637 528.174V528.18Z" fill="#08394A"/>
<path d="M173.153 601.815C171.34 603.005 170.835 605.436 172.019 607.249C172.771 608.4 174.029 609.029 175.314 609.029C176.05 609.029 176.796 608.821 177.458 608.394C181.113 606.02 191.98 600.839 198.307 605.352C200.075 606.609 202.528 606.199 203.785 604.431C205.043 602.663 204.633 600.21 202.865 598.953C190.858 590.398 173.866 601.35 173.153 601.821V601.815Z" fill="#08394A"/>
<path d="M613.407 555.792C614.967 555.792 616.443 554.86 617.055 553.322C624.42 534.905 646.66 518.75 662.804 515.219C664.926 514.753 666.268 512.66 665.802 510.543C665.336 508.421 663.242 507.085 661.126 507.546C643.09 511.492 618.324 529 609.764 550.409C608.955 552.424 609.938 554.709 611.953 555.517C612.43 555.708 612.924 555.798 613.412 555.798L613.407 555.792Z" fill="#08394A"/>
<path d="M410.453 69.9021C408.443 69.0825 406.147 70.0424 405.328 72.052C404.508 74.0616 405.468 76.3574 407.478 77.1769C411.806 78.9508 415.421 80.5618 418.918 82.1167C422.471 83.6996 426.142 85.3331 430.582 87.1518C431.071 87.3539 431.576 87.4437 432.07 87.4437C433.619 87.4437 435.084 86.5231 435.707 85.0019C436.527 82.9923 435.567 80.6965 433.558 79.877C429.224 78.1031 425.609 76.4921 422.112 74.9316C418.564 73.3487 414.893 71.7152 410.453 69.8965V69.9021Z" fill="#08394A"/>
<path d="M471.351 56.824C472.03 58.2217 473.428 59.03 474.882 59.03C475.46 59.03 476.05 58.9009 476.605 58.6314C478.553 57.6772 479.367 55.3252 478.413 53.3774C476.179 48.7969 474.169 44.643 472.159 40.4836C470.144 36.3185 468.135 32.1534 465.895 27.5617C464.941 25.6139 462.589 24.7999 460.641 25.7542C458.693 26.7085 457.879 29.0605 458.833 31.0083C461.067 35.5888 463.077 39.7426 465.087 43.9021C467.102 48.0672 469.111 52.2323 471.351 56.824Z" fill="#08394A"/>
<path d="M521.637 43.9861C523.208 43.9861 524.696 43.0375 525.302 41.4826C525.523 40.9138 525.824 36.3745 526.206 27.8647C526.408 23.2954 526.661 17.6989 526.779 16.1553C526.885 15.7006 526.908 15.2179 526.84 14.7239C526.554 12.7143 524.775 11.2043 522.748 11.311C521.48 11.3727 519.257 12.2484 518.982 15.1393C518.959 15.3526 518.937 15.6613 518.914 16.0542C518.869 16.7503 518.813 17.7439 518.757 18.9339C518.639 21.2746 518.504 24.3956 518.364 27.511C518.151 32.2992 517.887 38.2213 517.78 39.3608C517.455 41.1739 518.443 43.0263 520.222 43.7167C520.688 43.8963 521.171 43.9861 521.648 43.9861H521.637Z" fill="#08394A"/>
<path d="M203.33 89.8414C198.419 93.1364 191.688 93.6304 185.749 94.0626C183.583 94.2198 181.96 96.1058 182.117 98.267C182.269 100.333 183.992 101.91 186.03 101.91C186.125 101.91 186.221 101.91 186.322 101.899C192.895 101.416 201.068 100.821 207.709 96.364C211.728 93.664 214.613 89.9649 217.134 86.3667C225.312 74.6854 230.707 47.6797 234.277 29.8069C234.838 27.0002 235.366 24.3507 235.826 22.1671C236.275 20.0453 234.917 17.9571 232.795 17.5081C232.615 17.4688 232.43 17.4463 232.25 17.4351C231.437 17.3228 230.578 17.4576 229.803 17.8954C226.508 19.7309 222.983 21.3307 219.25 23.026C214.232 25.305 209.039 27.657 204.374 30.6769C197.088 35.3921 189.499 40.6181 183.841 48.0277C177.75 56.0042 173.922 74.2812 176.386 83.5769C176.852 85.3339 178.441 86.5014 180.181 86.5014C180.512 86.5014 180.854 86.4565 181.191 86.3667C183.291 85.811 184.537 83.6555 183.981 81.5617C182.146 74.6517 185.514 58.7885 190.088 52.799C194.978 46.3942 201.938 41.6173 208.641 37.2782C212.811 34.5782 217.734 32.3441 222.494 30.1886C223.836 29.5767 225.2 28.9536 226.559 28.3193C223.325 44.5025 217.92 71.5419 210.695 81.8648C208.613 84.8399 206.277 87.8655 203.325 89.847L203.33 89.8414Z" fill="#08394A"/>
<path d="M83.3671 170.584C72.8813 180.963 56.7934 185.6 42.3895 182.378C36.1194 180.98 26.0434 172.953 17.9489 166.509C16.1133 165.05 14.3283 163.629 12.6218 162.31C17.1855 160.783 22.4003 158.605 27.806 156.343C36.2204 152.824 44.9155 149.181 50.0854 148.58C63.0579 147.064 72.7241 152.683 85.9941 161.423C87.8073 162.619 90.2435 162.114 91.4391 160.306C92.6348 158.493 92.1352 156.057 90.322 154.861C78.3487 146.969 65.9713 138.818 49.1761 140.772C42.9059 141.502 34.0985 145.19 24.7747 149.091C17.0564 152.324 9.07415 155.664 4.26349 156.416C3.52814 156.534 2.87137 156.848 2.3381 157.298C1.64766 157.601 1.0358 158.111 0.603572 158.796C-0.552782 160.632 0.00294112 163.057 1.83851 164.213C4.77992 166.06 8.79909 169.265 13.054 172.656C22.2375 179.97 32.6391 188.255 40.6774 190.051C44.2531 190.848 47.913 191.236 51.5842 191.236C65.3145 191.236 79.1571 185.808 88.8962 176.17C90.4399 174.643 90.4511 172.156 88.9243 170.612C87.3975 169.069 84.9108 169.057 83.3671 170.584Z" fill="#08394A"/>
<path d="M353.193 127.883C351.47 127.159 349.477 127.742 348.422 129.286C344.436 135.118 335.797 136.162 331.004 136.269C328.567 136.32 326.137 136.224 323.555 136.123C318.194 135.91 312.648 135.691 307.091 136.915C298.8 138.739 291.25 143.78 286.389 150.74C285.148 152.52 285.58 154.967 287.36 156.213C289.139 157.454 291.587 157.021 292.833 155.242C296.577 149.881 302.392 145.997 308.78 144.594C313.35 143.589 318.155 143.78 323.246 143.982C325.828 144.083 328.506 144.195 331.178 144.133C336.308 144.021 340.9 143.14 344.773 141.557C341.832 149.601 337.56 156.859 332.295 162.629C326.586 168.882 316.948 176.253 303.493 175.955C302.712 175.938 301.921 175.927 301.129 175.916C296.173 175.854 291.048 175.787 287.511 173.457C285.698 172.267 283.262 172.767 282.072 174.58C280.882 176.393 281.381 178.829 283.195 180.019C288.651 183.606 295.23 183.69 301.028 183.763C301.797 183.775 302.555 183.78 303.307 183.803C303.655 183.808 303.998 183.814 304.346 183.814C316.942 183.814 328.595 178.335 338.105 167.917C346.598 158.616 352.784 145.958 355.523 132.272C355.888 130.442 354.917 128.607 353.193 127.877V127.883Z" fill="#08394A"/>
<path d="M108.798 745.707H107.226C105.054 745.707 103.297 743.95 103.297 741.778C103.297 739.606 105.054 737.849 107.226 737.849H108.798C110.97 737.849 112.727 739.606 112.727 741.778C112.727 743.95 110.97 745.707 108.798 745.707Z" fill="#CFA24C"/>
<path d="M132.341 733.151H130.769C128.597 733.151 126.84 731.394 126.84 729.221C126.84 727.049 128.597 725.292 130.769 725.292H132.341C134.513 725.292 136.27 727.049 136.27 729.221C136.27 731.394 134.513 733.151 132.341 733.151Z" fill="#CFA24C"/>
<path d="M132.33 756.692C131.326 756.692 130.315 756.31 129.552 755.541C128.019 754.003 128.019 751.516 129.552 749.984L131.118 748.418C132.65 746.885 135.143 746.885 136.675 748.418C138.207 749.95 138.207 752.443 136.675 753.975L135.103 755.547C134.334 756.316 133.329 756.698 132.325 756.698L132.33 756.692Z" fill="#CFA24C"/>
<path d="M215.327 730.445C214.249 730.445 213.189 730.001 212.431 729.171C205.975 722.12 197.331 719.1 191.218 717.809C183.937 716.271 175.837 716.12 165.733 717.332C163.583 717.59 161.624 716.052 161.36 713.897C161.102 711.741 162.64 709.788 164.796 709.524C175.781 708.205 184.695 708.39 192.84 710.113C202.17 712.084 210.202 716.125 216.253 721.856C226.61 717.747 237.842 716.333 248.923 717.764C251.073 718.045 252.594 720.01 252.319 722.165C252.039 724.315 250.074 725.836 247.918 725.561C237.365 724.197 226.644 725.769 216.927 730.102C216.411 730.332 215.866 730.445 215.327 730.445Z" fill="#CFA24C"/>
</g>
<defs>
<clipPath id="clip0_227_1173">
<rect width="780" height="820.005" fill="white"/>
</clipPath>
</defs>
</svg>
