<svg width="780" height="733" viewBox="0 0 780 733" fill="none" xmlns="http://www.w3.org/2000/svg">
<g clip-path="url(#clip0_227_1219)">
<path d="M694.2 368.941C694.304 319.761 666.802 276.957 626.26 255.107C638.483 235.456 645.572 212.289 645.621 187.463C645.774 116.214 587.981 58.3332 516.546 58.1853C495.751 58.1405 476.097 63.0016 458.672 71.662C432.276 50.2284 398.62 37.3431 361.931 37.267C276.943 37.0877 207.901 105.654 207.722 190.411C207.708 196.912 208.103 203.319 208.876 209.609C156.303 214.735 115.168 258.883 115.051 312.687C114.975 348.215 132.813 379.609 160.068 398.377C154.466 411.083 151.339 425.119 151.308 439.882C151.187 497.202 197.681 543.77 255.155 543.896C263.911 543.914 272.414 542.847 280.545 540.836C303.946 573.528 342.264 594.877 385.615 594.966C449.926 595.101 503.365 548.407 513.5 487.108C529.16 493.869 546.424 497.641 564.572 497.677C636.012 497.829 694.048 440.191 694.196 368.946L694.2 368.941Z" fill="white"/>
<path d="M19.203 45.7729C19.203 45.7729 18.0828 101.702 90.7934 68.1444C90.7934 68.1444 152.318 43.5326 171.335 120.718C171.335 120.718 67.3016 183.362 24.7933 92.7509C18.2162 86.6913 18.0988 67.4776 19.1977 45.7676L19.203 45.7729Z" fill="#D8B495"/>
<path d="M208.298 408.208C208.298 408.208 343.654 286.28 499.141 381.361C509.788 387.154 564.927 517.307 566.256 532.376C566.256 532.376 623.305 493.224 641.201 493.224C657.321 493.224 677.063 522.252 680.834 537.012C681.25 538.644 681.474 540.1 681.474 541.322C681.474 553.628 564.021 683.387 521.512 639.758L513.682 721.419L222.839 728.13L187.041 460.781C187.041 460.781 179.211 429.459 208.293 408.208H208.298Z" fill="#CEE799"/>
<path d="M498.235 143.36C485.827 64.1955 417.331 3.63672 334.688 3.63672C243.254 3.63672 169.13 77.7602 169.13 169.193C169.13 176.234 169.573 183.174 170.426 189.98C162.782 193.314 146.892 203.545 149.74 230.344C153.469 265.395 190.013 285.531 223.571 293.73L223.587 291.927C252.962 318.534 291.929 334.744 334.688 334.744C405.329 334.744 465.626 290.497 489.401 228.21C515.795 220.657 525.599 186.342 525.599 186.342C527.055 157.245 511.165 147.702 498.235 143.354V143.36Z" fill="#FFF4E1"/>
<path d="M199.34 277.888C199.34 277.888 157.392 220.839 164.102 168.821C170.818 116.807 180.323 1.02925 352.592 4.94453C352.592 4.94453 493.537 16.6904 500.253 167.146C500.253 167.146 499.693 254.397 486.832 274.533C486.832 274.533 510.324 159.315 404.611 64.2338C404.611 64.2338 377.764 48.5726 369.373 44.0973C369.373 44.0973 398.455 92.7555 325.745 105.622C325.745 105.622 293.862 131.908 245.203 133.028L204.935 157.64C204.935 157.64 185.919 233.145 199.34 277.894V277.888Z" fill="#D8B495"/>
<path d="M281.556 234.779C285.107 219.031 275.22 203.385 259.472 199.833C243.723 196.281 228.077 206.168 224.525 221.917C220.973 237.665 230.86 253.311 246.609 256.863C262.357 260.415 278.004 250.528 281.556 234.779Z" fill="#FFE4B6"/>
<path d="M472.138 185.65C475.69 169.902 465.802 154.256 450.054 150.704C434.305 147.152 418.659 157.039 415.107 172.788C411.555 188.536 421.442 204.182 437.191 207.734C452.939 211.286 468.586 201.399 472.138 185.65Z" fill="#FFE4B6"/>
<path d="M685.179 493.949C684.448 493.949 683.707 493.735 683.061 493.287C681.365 492.114 680.938 489.788 682.112 488.092C688.556 478.762 692.258 470.153 692.295 470.068C693.106 468.169 695.298 467.289 697.197 468.099C699.096 468.91 699.976 471.103 699.165 473.002C699.005 473.38 695.127 482.395 688.257 492.343C687.532 493.394 686.369 493.954 685.179 493.954V493.949Z" fill="#FFE4B6"/>
<path d="M655.553 213.809C654.166 213.809 652.838 213.036 652.193 211.702C651.291 209.846 652.065 207.611 653.921 206.715L755.378 157.496C757.234 156.595 759.469 157.368 760.365 159.225C761.267 161.081 760.493 163.316 758.637 164.212L657.18 213.43C656.657 213.687 656.103 213.804 655.553 213.804V213.809Z" fill="#B6E1ED"/>
<path d="M660.894 228.1C659.011 228.1 657.394 226.681 657.186 224.771C656.962 222.723 658.445 220.877 660.494 220.653L726.851 213.415C728.9 213.186 730.745 214.674 730.969 216.722C731.193 218.77 729.71 220.616 727.662 220.84L661.304 228.079C661.166 228.095 661.032 228.1 660.894 228.1Z" fill="#B6E1ED"/>
<path d="M760.501 259.587C760.32 259.587 760.133 259.571 759.946 259.544L662.218 245.024C660.181 244.72 658.772 242.821 659.071 240.784C659.375 238.746 661.274 237.338 663.312 237.637L761.04 252.156C763.078 252.46 764.486 254.359 764.187 256.397C763.91 258.253 762.32 259.581 760.496 259.581L760.501 259.587Z" fill="#B6E1ED"/>
<path d="M747.624 218.642C745.741 218.642 744.125 217.223 743.917 215.313C743.693 213.265 745.176 211.419 747.224 211.195L775.88 208.069C777.923 207.84 779.773 209.328 779.998 211.376C780.222 213.425 778.739 215.27 776.69 215.494L748.035 218.62C747.896 218.636 747.763 218.642 747.624 218.642Z" fill="#B6E1ED"/>
<path d="M704.071 467.885C702.449 468.589 700.555 468.056 699.536 466.615C698.518 465.17 698.651 463.207 699.856 461.916C706.476 454.822 714.152 445.738 715.022 443.428C716.398 439.763 716.211 438.483 716.131 438.195C716.067 438.168 715.944 438.12 715.742 438.083C713.507 438.542 704.327 443.262 690.095 452.752C676.295 461.953 667.451 469.197 666.134 471.347C663.168 476.196 658.671 489.046 656.441 495.868C659.919 498.77 664.016 502.856 668.758 508.601C672.823 513.519 677.138 519.509 680.451 525.318C680.637 525.27 680.824 525.238 681.021 525.217C685.849 524.795 701.905 520.426 719.428 514.1C742.968 505.597 751.305 500.055 752.521 498.124C754.361 495.201 756.239 485.621 756.266 472.968C756.298 460.481 754.425 452.795 753.076 451.248C749.171 450.693 729.659 456.785 704.071 467.885Z" fill="#FFF4E1"/>
<path d="M553.414 418.704C559.079 420.838 563.517 426.103 566.616 434.355C568.558 436.371 574.607 442.937 579.947 451.819L639.94 445.274C642.96 444.943 645.685 443.321 647.414 440.82C649.142 438.323 649.697 435.203 648.939 432.264L618.326 313.595C617.035 308.597 612.197 305.247 607.06 305.812L564.152 310.496C564.152 310.496 564.152 310.496 564.147 310.496L562.429 310.682C557.42 311.232 553.51 315.28 553.142 320.316L546.016 417.808C548.149 417.568 550.715 417.68 553.43 418.704H553.414Z" fill="#FFE2B7"/>
<path d="M573.762 274.464L590.528 272.635L590.032 262.398C589.077 255.864 590.506 250.354 594.283 246.023C602.012 237.163 617.033 236.805 619.247 236.805L622.357 236.464L620.586 220.227L617.844 220.525C617.844 220.525 617.796 220.525 617.775 220.531C587.087 223.294 565.889 233.717 553.503 241.974C548.025 245.628 543.736 249.191 540.578 252.136C542.397 251.927 544.344 251.73 546.334 251.559C562.304 250.178 566.502 251.874 568.508 253.714C572.733 257.598 573.634 267.951 573.768 274.459L573.762 274.464Z" fill="white"/>
<path d="M602.544 298.799L600.395 279.078L570.417 282.348C570.417 282.348 570.417 282.348 570.411 282.348L564.906 282.951L567.056 302.671L602.55 298.799H602.544Z" fill="#B6E1ED"/>
<path d="M371.387 377.419C376.348 377.419 380.386 373.381 380.386 368.42V335.802C373.201 337.887 365.861 339.509 358.42 340.645C351.218 341.744 344.007 342.368 336.832 342.549V342.864C336.832 361.918 352.333 377.419 371.387 377.419Z" fill="#FFF4E1"/>
<path d="M581.327 484.726C584.794 463.23 561.004 439.284 560.764 439.044C560.369 438.65 560.065 438.175 559.878 437.652C557.595 431.257 554.485 427.133 550.885 425.73C547.796 424.525 545.022 425.538 544.185 425.906L544.169 425.922L486.746 472.9C487.248 473.604 487.77 474.357 488.314 475.173C491.968 480.64 496.022 487.804 500.039 495.885C503.533 502.916 507.336 511.386 510.126 518.993C515.69 518.63 529.404 517.419 543.353 513.68C559.238 509.423 578.719 500.942 581.332 484.721L581.327 484.726ZM534.946 458.904C534.279 458.904 533.607 458.728 532.999 458.354C531.244 457.277 530.689 454.983 531.761 453.228C532.044 452.764 538.813 441.824 547.913 438.575C549.855 437.882 551.994 438.895 552.688 440.837C553.381 442.778 552.368 444.917 550.426 445.611C544.948 447.568 539.693 454.588 538.131 457.133C537.426 458.279 536.2 458.914 534.941 458.914L534.946 458.904Z" fill="#FFF4E1"/>
<path d="M289.296 166.836C281.945 168.949 277.699 176.619 279.812 183.964C281.924 191.315 289.589 195.561 296.94 193.448C304.29 191.336 308.537 183.671 306.424 176.32C304.312 168.97 296.641 164.724 289.296 166.836Z" fill="#08394A"/>
<path d="M403.502 167.21C410.853 165.098 415.099 157.433 412.987 150.082C410.874 142.732 403.204 138.486 395.859 140.598C388.508 142.71 384.262 150.381 386.374 157.726C388.487 165.076 396.157 169.322 403.502 167.21Z" fill="#08394A"/>
<path d="M635.246 218.206L627.992 218.998L629.819 235.733L637.073 234.941L635.246 218.206Z" fill="#08394A"/>
<path d="M599.894 250.951C598.609 252.428 597.792 254.14 597.43 256.119C610.237 270.596 624.544 264.067 624.544 264.067L610.968 253.847L608.253 245.995C605.255 246.95 602.049 248.481 599.899 250.951H599.894Z" fill="#08394A"/>
<path d="M498.969 170.826C499.017 170.826 499.065 170.826 499.113 170.826C501.108 170.826 502.761 169.247 502.841 167.236C503.455 151.388 497.913 126.59 497.678 125.544C497.667 125.485 497.651 125.427 497.635 125.368C482.63 71.2211 441.871 27.8703 388.593 9.39811C386.646 8.72067 384.518 9.7555 383.84 11.7025C383.163 13.6494 384.198 15.7778 386.145 16.4552C437.071 34.1113 476.042 75.5364 490.407 127.272C490.765 128.883 495.934 152.514 495.379 166.953C495.299 169.012 496.904 170.751 498.963 170.826H498.969Z" fill="#08394A"/>
<path d="M307.854 9.36596C323.643 6.96025 339.587 6.8429 355.249 9.02457C357.292 9.30728 359.18 7.88306 359.463 5.84007C359.745 3.79709 358.321 1.9088 356.278 1.62609C339.902 -0.656936 323.233 -0.53425 306.729 1.98347C261.772 8.84321 222.091 32.7349 194.998 69.2579C167.922 105.76 156.56 150.62 163.004 195.582C163.27 197.443 164.865 198.787 166.695 198.787C166.871 198.787 167.052 198.777 167.228 198.75C169.271 198.457 170.685 196.563 170.397 194.525C164.236 151.521 175.102 108.619 200.994 73.7066C226.908 38.7785 264.855 15.927 307.854 9.36596Z" fill="#08394A"/>
<path d="M331.35 216.519C337.58 219.82 344.653 221.527 351.716 221.527C355.273 221.527 358.831 221.095 362.272 220.215C372.551 217.596 381.801 211.019 387.652 202.17C388.788 200.452 388.319 198.132 386.596 196.996C384.873 195.859 382.558 196.329 381.422 198.052C376.584 205.37 368.929 210.811 360.426 212.977C351.924 215.142 342.599 214.028 334.849 209.92C333.024 208.955 330.768 209.648 329.803 211.472C328.837 213.297 329.531 215.553 331.355 216.519H331.35Z" fill="#08394A"/>
<path d="M345.647 192.808C344.633 194.606 345.268 196.884 347.066 197.897C347.647 198.223 348.276 198.383 348.895 198.383C350.197 198.383 351.466 197.7 352.149 196.484C353.467 194.153 361.057 192.078 363.431 193.395C365.234 194.398 367.506 193.747 368.509 191.944C369.512 190.141 368.861 187.869 367.058 186.866C361.02 183.511 349.012 186.845 345.641 192.808H345.647Z" fill="#08394A"/>
<path d="M529.302 176.572C528.15 164.112 521.37 152.345 511.176 145.09C509.496 143.895 507.165 144.29 505.97 145.97C504.775 147.65 505.17 149.982 506.85 151.176C515.299 157.188 520.911 166.939 521.871 177.26C523.146 191.007 515.844 204.699 501.841 214.829C500.172 216.04 499.798 218.371 501.004 220.04C501.735 221.049 502.876 221.587 504.034 221.587C504.791 221.587 505.559 221.358 506.221 220.878C522.415 209.164 530.833 193.012 529.312 176.572H529.302Z" fill="#08394A"/>
<path d="M188.973 283.788C190.302 283.788 191.593 283.073 192.265 281.82C193.241 280.001 192.558 277.739 190.744 276.763C175.174 268.394 164.127 258.147 157.923 246.294C150.594 232.298 150.786 215.986 158.419 204.731C159.577 203.024 159.134 200.703 157.427 199.546C155.72 198.388 153.4 198.836 152.242 200.538C143.089 214.033 142.721 233.354 151.309 249.756C158.222 262.953 170.298 274.251 187.213 283.34C187.773 283.644 188.381 283.783 188.979 283.783L188.973 283.788Z" fill="#08394A"/>
<path d="M40.5288 70.4107C29.3483 64.3778 23.6301 53.4054 22.0085 45.1481C21.6084 43.1265 19.6454 41.8089 17.6237 42.2037C15.6021 42.6037 14.2845 44.5667 14.6793 46.5883C16.6316 56.5152 23.5127 69.7119 36.9762 76.9824C53.3576 85.8265 71.4139 81.7298 83.6719 76.7317C105.697 67.7596 123.598 66.8262 136.875 73.9633C153.059 82.6633 156.921 100.863 156.985 101.184C157.337 102.965 158.895 104.197 160.645 104.197C160.879 104.197 161.125 104.176 161.365 104.128C163.386 103.733 164.709 101.77 164.314 99.7486C164.144 98.8631 159.855 77.8999 140.503 67.4343C125.156 59.1396 105.089 59.9398 80.8501 69.8133C65.4076 76.1076 51.4586 76.3103 40.5235 70.4054L40.5288 70.4107Z" fill="#08394A"/>
<path d="M138.296 129.038C121.946 138.464 92.459 143.809 66.3427 133.274C46.8835 125.427 33.3933 110.166 27.3176 89.144C26.7469 87.165 24.6772 86.0235 22.6929 86.5943C20.7139 87.165 19.5724 89.2347 20.1431 91.219C26.8749 114.529 41.8853 131.465 63.5476 140.203C73.9013 144.379 85.4818 146.529 97.4358 146.529C100.028 146.529 102.642 146.428 105.266 146.225C118.815 145.169 131.868 141.365 142.024 135.514C143.811 134.484 144.425 132.201 143.395 130.414C142.366 128.627 140.083 128.014 138.296 129.044V129.038Z" fill="#08394A"/>
<path d="M224.512 106.209C222.624 105.388 220.421 106.252 219.6 108.14C213.241 122.724 207.299 138.785 202.861 153.363C197.26 171.777 194.001 187.715 193.179 200.742C193.051 202.8 194.614 204.571 196.673 204.705C196.753 204.705 196.833 204.71 196.913 204.71C198.865 204.71 200.514 203.19 200.636 201.211C200.967 195.989 202.402 181.981 208.584 160.25C208.67 160.213 208.755 160.181 208.835 160.138C224.384 152.057 239.891 141.943 252.501 131.664C268.674 118.478 280.036 105.26 286.277 92.3727C288.603 87.5719 291.078 81.8217 291.83 75.5274C292.075 73.4791 290.609 71.6228 288.566 71.3774C286.517 71.132 284.661 72.5989 284.416 74.6419C283.797 79.8374 281.615 84.8728 279.561 89.1135C268.136 112.706 238.072 135.457 211.636 150.152C215.263 138.801 220.069 125.759 226.443 111.128C227.265 109.239 226.401 107.036 224.512 106.215V106.209Z" fill="#08394A"/>
<path d="M332.31 98.5914C339.975 81.33 344.488 63.0232 345.725 44.1776C345.859 42.1186 344.301 40.3423 342.242 40.209C340.183 40.0863 338.407 41.6332 338.274 43.6922C337.095 61.6576 332.79 79.111 325.482 95.5669C321.86 103.723 313.693 110.999 303.073 115.527C292.981 119.832 283.086 122.563 270.988 124.371C268.95 124.675 267.542 126.58 267.846 128.617C268.123 130.468 269.718 131.797 271.532 131.797C271.713 131.797 271.9 131.781 272.092 131.754C284.67 129.871 295.445 126.894 306.002 122.392C318.34 117.128 327.93 108.454 332.305 98.5914H332.31Z" fill="#08394A"/>
<path d="M361.766 88.3544C356.629 91.4429 345.203 96.5637 340.547 97.0331C338.493 97.2411 336.999 99.0707 337.202 101.119C337.394 103.045 339.016 104.48 340.915 104.48C341.037 104.48 341.165 104.474 341.293 104.458C348.297 103.754 361.35 97.3158 365.617 94.7501C382.585 84.5351 376.969 63.0438 373.251 48.8229C372.963 47.7134 372.68 46.6359 372.413 45.5904C371.906 43.5901 369.874 42.3846 367.879 42.886C365.879 43.3927 364.668 45.4251 365.175 47.42C365.441 48.4815 365.729 49.575 366.023 50.7059C370.354 67.2898 373.027 81.564 361.761 88.3491L361.766 88.3544Z" fill="#08394A"/>
<path d="M463.885 153C464.397 154.574 465.864 155.577 467.432 155.577C467.816 155.577 468.205 155.518 468.589 155.39C470.552 154.75 471.619 152.643 470.979 150.68C465.666 134.411 456.902 117.411 445.636 101.51C434.418 85.6777 421.238 71.6702 407.523 61.0072C405.896 59.7377 403.549 60.0364 402.285 61.6633C401.021 63.2902 401.314 65.6373 402.941 66.9015C429.671 87.6887 453.59 121.486 463.879 152.995L463.885 153Z" fill="#08394A"/>
<path d="M371.383 384.887C380.462 384.887 387.85 377.499 387.85 368.421V333.445C406.311 327.161 423.626 317.762 438.925 305.627C457.248 291.091 472.461 272.854 483.519 252.291C482.852 260.393 481.721 268.325 480.115 275.905C479.689 277.921 480.974 279.906 482.996 280.332C483.257 280.386 483.519 280.412 483.775 280.412C485.503 280.412 487.05 279.207 487.423 277.452C494.96 241.916 492.405 198.997 480.761 165.44C480.083 163.493 477.955 162.458 476.008 163.135C474.061 163.813 473.026 165.941 473.704 167.888C480.59 187.726 484.169 210.967 484.233 233.888C483.956 234.192 483.727 234.544 483.556 234.939C472.85 260.271 455.813 282.69 434.278 299.77C412.083 317.378 385.46 328.959 357.279 333.258C297.893 342.321 238.39 318.205 202.011 270.325C201.872 270.144 201.723 269.984 201.563 269.835C198.72 252.803 196.869 234.411 197.392 216.13C197.45 214.066 195.829 212.348 193.764 212.29C191.711 212.231 189.982 213.853 189.924 215.917C189.39 234.677 190.414 265.946 205.382 320.68C205.836 322.339 207.34 323.432 208.983 323.432C209.308 323.432 209.639 323.39 209.97 323.299C211.959 322.755 213.133 320.701 212.589 318.712C209.948 309.046 206.993 297.567 204.395 284.973C236.347 320.979 281.747 341.697 329.355 342.577V342.865C329.355 366.036 348.206 384.887 371.378 384.887H371.383ZM336.828 342.55C343.997 342.369 351.209 341.745 358.415 340.646C365.857 339.51 373.196 337.888 380.382 335.802V368.421C380.382 373.381 376.344 377.419 371.383 377.419C352.329 377.419 336.828 361.918 336.828 342.865V342.55Z" fill="#08394A"/>
<path d="M192.678 442.656C194.641 416.956 227.681 395.054 255.056 381.211C285.387 365.87 315.68 356.834 315.978 356.744C317.957 356.157 319.083 354.082 318.501 352.103C317.915 350.124 315.84 348.998 313.861 349.58C313.551 349.67 282.703 358.872 251.776 374.501C209.411 395.912 187.024 418.647 185.237 442.053C185.146 443.136 183.028 468.788 187.696 486.284C188.139 487.953 189.648 489.058 191.302 489.058C191.622 489.058 191.942 489.015 192.267 488.929C194.262 488.396 195.446 486.353 194.913 484.358C190.587 468.132 192.662 442.938 192.683 442.656H192.678Z" fill="#08394A"/>
<path d="M404.654 354.753C424.908 357.869 480.395 368.681 493.698 381.099C509.791 396.12 518.737 426.877 518.827 427.181C519.297 428.824 520.791 429.89 522.417 429.89C522.759 429.89 523.1 429.842 523.447 429.746C525.431 429.181 526.578 427.111 526.013 425.132C525.629 423.788 516.422 392.087 498.803 375.642C481.099 359.117 408.863 347.846 405.801 347.376C403.763 347.062 401.854 348.459 401.544 350.497C401.23 352.534 402.627 354.439 404.665 354.753H404.654Z" fill="#08394A"/>
<path d="M755.862 444.281C753.974 443.566 750.043 442.078 724.551 451.594C721.59 452.698 718.672 453.829 715.957 454.907C718.806 451.408 721.254 448.047 722.006 446.052C723.356 442.446 724.636 437.859 722.518 434.306C721.675 432.893 719.942 431.106 716.496 430.636C714.976 430.428 712.65 430.599 704.248 435.24C699.442 437.891 693.329 441.651 687.03 445.817C681.498 449.477 663.191 461.841 659.767 467.442C656.518 472.755 652.288 484.725 650.064 491.366C647.082 489.696 644.863 489.131 643.375 488.992C639.507 488.645 630.882 490.182 600.642 507.534C584.389 516.863 569.48 526.454 569.33 526.55C567.597 527.665 567.095 529.98 568.216 531.713C569.33 533.447 571.645 533.948 573.379 532.828C573.528 532.732 588.299 523.232 604.387 513.999C633.768 497.137 641.145 496.289 642.702 496.428C646.111 496.737 653.707 502.087 663.004 513.342C673.177 525.664 678.884 537.106 678.591 541.165C677.588 544.627 663.362 562.331 638.184 585.791C600.914 620.516 576.03 634.305 564.514 639.431C551.167 645.374 541.038 646.638 534.402 643.187C532.572 642.237 530.316 642.947 529.366 644.776C528.417 646.606 529.126 648.862 530.956 649.812C534.423 651.615 538.44 652.511 543.001 652.511C552.144 652.511 563.457 648.889 576.809 641.666C588.726 635.223 613.882 619.46 648.458 586.351C658.412 576.819 667.688 567.159 674.585 559.147C685.573 546.382 685.883 543.31 686.011 541.998C686.278 539.341 685.456 535.997 683.947 532.332C691.505 531.063 706.985 526.518 721.963 521.109C743.354 513.385 755.761 506.984 758.844 502.087C762.541 496.209 763.426 483.124 763.64 477.774C764.066 466.903 763.154 456.939 761.207 451.13C759.954 447.402 758.209 445.156 755.868 444.265L755.862 444.281ZM752.518 498.124C751.302 500.06 742.964 505.597 719.424 514.1C701.907 520.426 685.851 524.795 681.018 525.216C680.821 525.232 680.634 525.27 680.447 525.318C677.14 519.509 672.819 513.518 668.755 508.6C664.007 502.855 659.916 498.77 656.438 495.868C658.673 489.045 663.164 476.195 666.13 471.347C667.442 469.197 676.287 461.953 690.092 452.752C704.323 443.268 713.498 438.542 715.738 438.083C715.941 438.125 716.058 438.168 716.128 438.195C716.208 438.488 716.395 439.763 715.018 443.428C714.154 445.737 706.473 454.821 699.853 461.916C698.648 463.207 698.514 465.17 699.533 466.615C700.552 468.061 702.446 468.589 704.067 467.885C729.655 456.784 749.168 450.687 753.073 451.247C754.422 452.794 756.294 460.481 756.262 472.968C756.23 485.615 754.353 495.196 752.518 498.124Z" fill="#08394A"/>
<path d="M512.521 526.327C529.238 525.095 583.397 518.598 588.667 485.916C590.176 476.56 587.616 467.134 583.733 458.92L640.729 452.705C645.908 452.14 650.576 449.361 653.536 445.077C656.497 440.794 657.446 435.449 656.15 430.409L625.537 311.739C623.643 304.41 617.295 299.156 609.993 298.393L607.395 274.56C607.288 273.573 606.792 272.672 606.024 272.053C605.251 271.434 604.269 271.146 603.282 271.253L597.97 271.835L597.489 261.865C597.484 261.737 597.468 261.609 597.452 261.481C597.148 259.513 597.148 257.736 597.441 256.136C596.801 255.411 596.161 254.632 595.532 253.8L607.774 244.609L608.259 246.017C609.411 245.649 610.532 245.372 611.545 245.158C615.812 244.268 619.36 244.305 619.386 244.3C619.541 244.3 619.696 244.3 619.85 244.278L626.881 243.51C627.868 243.403 628.769 242.907 629.388 242.134C630.007 241.36 630.295 240.374 630.188 239.392L629.799 235.802L626.086 236.208L624.55 219.437L627.974 219.064L627.612 215.724C627.505 214.738 627.009 213.836 626.241 213.217C625.467 212.599 624.486 212.311 623.499 212.417L617.082 213.116C584.645 216.045 562.172 227.177 549.034 236.005C534.642 245.676 528.011 254.664 527.734 255.043C526.843 256.264 526.779 257.902 527.569 259.193C528.358 260.483 529.852 261.166 531.345 260.926C547.689 258.302 561.105 257.966 563.532 259.294C565.031 260.846 566.199 267.834 566.316 275.286L560.374 275.937C558.326 276.161 556.843 278.006 557.067 280.054L559.638 303.599C552.005 305.306 546.265 311.825 545.684 319.783L538.274 421.1L482.02 467.129C479.678 464.739 478.067 463.944 476.915 463.576C474.349 462.755 469.581 461.229 407.277 490.877C377.096 505.236 347.699 520.161 347.406 520.311C345.566 521.244 344.835 523.49 345.768 525.33C346.702 527.17 348.947 527.901 350.788 526.968C351.07 526.824 379.432 512.427 408.979 498.334C462.043 473.029 472.669 470.745 474.755 470.745H474.781C477.07 471.807 483.94 480.294 493.398 499.353C500.983 514.646 506.531 529.528 506.733 535.092C505.794 537.193 498.972 544.677 478.713 560.391C461.467 573.77 439.128 589.473 417.423 603.486C363.328 638.404 321.882 657.601 309.266 653.585C300.305 650.736 282.782 637.454 250.169 590.391C230.384 561.837 214.435 534.19 214.28 533.918C213.25 532.131 210.967 531.518 209.18 532.542C207.393 533.571 206.78 535.854 207.804 537.641C207.964 537.919 224.042 565.795 244.002 594.605C271.159 633.806 292.357 656.044 306.999 660.7C308.754 661.26 310.781 661.538 313.085 661.538C318.873 661.538 326.442 659.772 335.98 656.214C347.192 652.032 361.045 645.391 377.149 636.473C404.493 621.334 438.263 599.539 467.49 578.17C480.814 568.425 492.128 559.543 500.215 552.481C513.124 541.199 514.206 537.748 514.206 535.396C514.206 533.043 513.582 529.949 512.537 526.338L512.521 526.327ZM546.329 251.559C544.339 251.73 542.392 251.933 540.573 252.135C543.731 249.191 548.015 245.628 553.498 241.974C565.879 233.717 587.082 223.294 617.77 220.531C617.791 220.531 617.818 220.531 617.84 220.525L620.581 220.227L622.352 236.464L619.242 236.805C617.029 236.805 602.008 237.162 594.278 246.023C590.502 250.354 589.072 255.864 590.027 262.398L590.523 272.635L573.758 274.464C573.624 267.957 572.723 257.603 568.498 253.72C566.498 251.879 562.294 250.183 546.324 251.565L546.329 251.559ZM570.386 282.343C570.386 282.343 570.386 282.343 570.392 282.343L600.37 279.073L602.52 298.793L567.026 302.666L564.876 282.946L570.381 282.343H570.386ZM553.114 320.317C553.482 315.281 557.392 311.227 562.401 310.683L564.119 310.497C564.119 310.497 564.119 310.497 564.124 310.497L607.032 305.813C612.164 305.248 617.007 308.598 618.298 313.596L648.911 432.265C649.669 435.204 649.114 438.324 647.386 440.821C645.657 443.323 642.932 444.944 639.912 445.275L579.919 451.82C574.579 442.939 568.53 436.372 566.588 434.356C563.489 426.104 559.051 420.839 553.386 418.705C550.671 417.681 548.105 417.569 545.972 417.809L553.098 320.317H553.114ZM500.012 495.891C495.995 487.804 491.941 480.646 488.288 475.178C487.743 474.362 487.221 473.61 486.719 472.906L544.142 425.928L544.158 425.912C544.996 425.544 547.769 424.53 550.858 425.736C554.458 427.139 557.568 431.262 559.851 437.658C560.038 438.18 560.342 438.661 560.737 439.05C560.977 439.29 584.767 463.23 581.3 484.732C578.686 500.948 559.201 509.429 543.321 513.691C529.377 517.43 515.663 518.646 510.094 519.004C507.304 511.402 503.501 502.926 500.007 495.896L500.012 495.891Z" fill="#08394A"/>
<path d="M626.091 236.192L629.804 235.786L627.979 219.048L624.555 219.421L626.091 236.192Z" fill="#08394A"/>
<path d="M595.52 253.784C596.154 254.616 596.789 255.395 597.429 256.12C597.792 254.141 598.608 252.429 599.894 250.952C602.038 248.482 605.244 246.951 608.247 245.996L607.762 244.588L595.52 253.779V253.784Z" fill="#08394A"/>
<path d="M511.542 700.257C511.467 702.316 513.072 704.05 515.137 704.125C515.185 704.125 515.233 704.125 515.276 704.125C517.276 704.125 518.929 702.54 519.004 700.529L524.258 558.651L516.796 558.374L511.542 700.252V700.257Z" fill="#08394A"/>
<path d="M502.89 718.885C462.707 723.536 348.731 723.953 280.629 724.209C257.585 724.294 239.385 724.358 229.901 724.561C227.837 724.603 226.204 726.31 226.247 728.369C226.29 730.407 227.954 732.023 229.981 732.023C230.008 732.023 230.034 732.023 230.061 732.023C239.481 731.826 257.655 731.762 280.661 731.676C348.918 731.426 463.155 731.004 503.748 726.305C505.797 726.07 507.264 724.214 507.029 722.166C506.794 720.117 504.943 718.65 502.89 718.885Z" fill="#08394A"/>
<path d="M210.224 571.865C210.053 569.811 208.245 568.285 206.196 568.451C204.143 568.621 202.612 570.424 202.783 572.478C202.841 573.209 208.896 646.143 215.291 694.982C215.537 696.86 217.142 698.231 218.988 698.231C219.148 698.231 219.313 698.22 219.479 698.199C221.522 697.932 222.962 696.055 222.695 694.012C216.321 645.353 210.282 572.595 210.224 571.865Z" fill="#08394A"/>
<path d="M552.73 542.335C542.056 548.48 534.076 561.384 533.745 561.933C532.668 563.693 533.223 565.992 534.978 567.064C535.586 567.438 536.258 567.614 536.925 567.614C538.183 567.614 539.41 566.979 540.114 565.827C540.189 565.71 547.417 554.012 556.458 548.806C558.245 547.776 558.859 545.493 557.829 543.706C556.8 541.919 554.517 541.306 552.73 542.335Z" fill="#08394A"/>
<path d="M245.963 414.038C244.09 413.179 241.871 414 241.012 415.878C240.154 417.75 240.975 419.969 242.847 420.828C242.938 420.871 251.894 425.01 262.531 432.174C272.207 438.692 285.308 449.12 292.765 461.805C293.458 462.989 294.707 463.645 295.987 463.645C296.632 463.645 297.283 463.48 297.875 463.128C299.651 462.083 300.243 459.794 299.198 458.018C283.611 431.523 247.483 414.742 245.957 414.038H245.963Z" fill="#08394A"/>
<path d="M550.411 445.6C552.353 444.906 553.366 442.773 552.673 440.826C551.979 438.884 549.84 437.871 547.899 438.564C538.799 441.813 532.029 452.753 531.747 453.217C530.675 454.977 531.224 457.271 532.984 458.343C533.592 458.716 534.264 458.893 534.931 458.893C536.185 458.893 537.412 458.258 538.121 457.111C539.684 454.572 544.938 447.547 550.416 445.589L550.411 445.6Z" fill="#08394A"/>
<path d="M15.7324 569.684C8.13114 577.851 6.0508 593.694 8.50454 604.725C22.5868 600.585 32.4498 594.691 38.5841 586.754C45.3959 577.936 47.3376 565.406 43.817 554.082C32.2631 556.701 23.0509 561.827 15.7377 569.69L15.7324 569.684Z" fill="#35B46F"/>
<path d="M45.5446 546.096C30.8809 548.774 19.3323 554.823 10.2375 564.595C-0.473623 576.106 -2.19124 597.4 2.36418 610.533C2.8976 612.069 4.3325 613.045 5.89009 613.045C6.19947 613.045 6.51952 613.008 6.83424 612.922C24.4745 608.324 36.7805 601.251 44.4617 591.314C53.4552 579.675 55.5036 562.819 49.6733 548.374C49.0118 546.731 47.2835 545.781 45.5393 546.096H45.5446ZM38.5568 586.748C32.4224 594.685 22.5648 600.585 8.47718 604.719C6.02344 593.693 8.10378 577.845 15.705 569.678C23.0236 561.816 32.2304 556.695 43.7843 554.071C47.3049 565.395 45.3632 577.925 38.5514 586.742L38.5568 586.748Z" fill="#08394A"/>
<path d="M601.487 72.545C609.446 67.5309 614.609 55.1823 615.148 45.5488C602.725 45.9489 593.358 48.68 586.599 53.8595C579.126 59.5883 574.784 69.3499 575.072 79.3621C585.106 79.6501 593.768 77.4098 601.487 72.545Z" fill="#35B46F"/>
<path d="M567.876 83.3778C568.095 85.1381 569.519 86.4983 571.29 86.637C573.162 86.7864 574.997 86.8557 576.8 86.8557C587.527 86.8557 596.942 84.2206 605.45 78.8598C617.191 71.4613 623.475 53.6986 622.562 41.4833C622.418 39.5417 620.802 38.0375 618.855 38.0268C602.847 37.9841 590.819 41.2006 582.044 47.927C571.738 55.8216 566.18 69.7384 567.881 83.3725L567.876 83.3778ZM586.578 53.8586C593.342 48.6791 602.703 45.948 615.127 45.548C614.582 55.1815 609.419 67.53 601.466 72.5442C593.747 77.4089 585.084 79.6493 575.051 79.3612C574.763 69.349 579.105 59.5821 586.578 53.8586Z" fill="#08394A"/>
<path d="M53.3874 339.519C46.0368 333.651 32.6746 332.835 23.3984 335.491C27.8578 347.093 33.5174 355.041 40.6333 359.725C48.5012 364.899 59.1483 365.79 68.5098 362.226C65.4853 352.662 60.5192 345.21 53.3874 339.519Z" fill="#35B46F"/>
<path d="M58.0306 333.685C47.1808 325.027 28.3404 324.937 17.1065 329.818C15.3196 330.596 14.4288 332.613 15.0635 334.458C20.2644 349.581 27.2789 359.892 36.5177 365.967C42.4334 369.856 49.5705 371.829 56.8357 371.829C62.8954 371.829 69.0457 370.459 74.6466 367.69C76.2362 366.906 77.0524 365.108 76.6043 363.396C73.2864 350.733 67.2108 341.014 58.0359 333.69L58.0306 333.685ZM40.6197 359.726C33.5039 355.043 27.8443 347.1 23.3849 335.493C32.6611 332.837 46.0233 333.653 53.3738 339.52C60.5057 345.212 65.4718 352.658 68.4963 362.228C59.1348 365.791 48.4823 364.9 40.6197 359.726Z" fill="#08394A"/>
</g>
<defs>
<clipPath id="clip0_227_1219">
<rect width="780" height="732.023" fill="white"/>
</clipPath>
</defs>
</svg>
