<svg width="780" height="591" viewBox="0 0 780 591" fill="none" xmlns="http://www.w3.org/2000/svg">
<g clip-path="url(#clip0_227_1122)">
<path d="M631.798 331.87C631.901 282.69 604.4 239.885 563.857 218.035C576.081 198.385 583.17 175.217 583.219 150.392C583.372 79.1424 525.579 21.2619 454.143 21.114C433.349 21.0692 413.695 25.9303 396.27 34.5907C369.873 13.1571 336.217 0.271828 299.529 0.195663C214.54 0.0164524 145.499 68.5825 145.319 153.34C145.306 159.841 145.701 166.248 146.474 172.538C93.901 177.663 52.7655 221.812 52.6487 275.616C52.5723 311.144 70.411 342.537 97.6655 361.305C92.0637 374.011 88.9371 388.048 88.9056 402.81C88.7843 460.131 135.279 506.699 192.753 506.824C201.508 506.842 210.012 505.776 218.143 503.764C241.543 536.457 279.862 557.805 323.212 557.895C387.523 558.029 440.963 511.336 451.098 450.037C466.757 456.797 484.021 460.57 502.17 460.606C573.61 460.758 631.645 403.119 631.794 331.874L631.798 331.87Z" fill="white"/>
<path d="M326.613 581.113C326.613 581.113 277.001 575.34 238.75 544.441C220.895 530.019 213.163 506.427 218.846 484.191C232.529 430.618 270.324 324.001 357.115 306.22C357.115 306.22 449.958 286.119 502.6 306.22C555.243 326.32 606.926 370.345 629.898 490.946C629.898 490.946 649.039 561.771 505.471 585.7L455.7 546.458L379.219 541.986L326.613 581.118V581.113Z" fill="#FFE2B7"/>
<path d="M553.734 157.053C553.734 82.8364 493.57 22.6729 419.353 22.6729C345.137 22.6729 284.973 82.8364 284.973 157.053C284.973 225.751 336.524 282.4 403.05 290.447V305.257C403.05 305.257 422.694 332.537 438.965 305.257V290.004C503.885 280.511 553.734 224.605 553.734 157.053Z" fill="#FFF4E1"/>
<path d="M357.529 18.9494C382.81 7.96822 415.461 0.606382 453.754 6.95956C453.754 6.95956 564.424 9.84862 592.849 186.747C592.849 186.747 602.612 249.27 586.816 265.062C586.816 265.062 565.976 277.504 551.271 273.675C551.271 273.675 534.89 296.554 502.708 280.329L486.867 273.25C486.867 273.25 543.963 246.5 547.683 199.791C551.403 153.083 530.344 100.441 520.773 85.603C520.773 85.603 484.84 100.391 459.021 89.3821C459.021 89.3821 425.498 116.707 380.053 64.0652C380.053 64.0652 371.828 50.3456 357.127 70.1263C357.127 70.1263 344.626 90.2264 321.354 91.1849C321.354 91.1849 272.975 123.407 310.893 242.73C310.893 242.73 343.408 279.001 375.941 284.313C375.941 284.313 371.043 298.229 340.149 289.462C340.149 289.462 317.867 310.858 287.557 277.91C287.557 277.91 227.881 213.141 279.113 97.3737C294.599 62.3856 322.436 34.1888 357.534 18.9448L357.529 18.9494Z" fill="#D8B495"/>
<path d="M421.755 434.868C468.952 434.868 507.213 421.817 507.213 405.717C507.213 389.618 468.952 376.566 421.755 376.566C374.558 376.566 336.297 389.618 336.297 405.717C336.297 421.817 374.558 434.868 421.755 434.868Z" fill="#D8B495"/>
<path d="M502.333 415.466C490.571 404.16 458.942 396.068 421.772 396.068C384.602 396.068 350.974 404.685 340.152 416.552C340.152 416.552 376.455 442.462 456.222 432.407L502.333 415.47V415.466Z" fill="#E5CD9F"/>
<path d="M419.322 362.208C419.322 362.208 407.972 334.54 378.154 337.973C378.154 337.973 341.815 350.245 336.297 344.978C336.297 344.978 366.671 371.779 396.821 365.079C396.821 365.079 419.811 368.556 419.322 373.518V362.208Z" fill="#35B46F"/>
<path d="M419.365 355.598C419.365 355.598 417.115 331.422 440.086 326.315C463.057 321.212 488.26 323.444 488.26 323.444C488.26 323.444 478.406 361.271 419.365 355.598Z" fill="#35B46F"/>
<path d="M501.958 192.36C515.989 192.36 527.362 180.986 527.362 166.956C527.362 152.926 515.989 141.553 501.958 141.553C487.928 141.553 476.555 152.926 476.555 166.956C476.555 180.986 487.928 192.36 501.958 192.36Z" fill="#FFA030"/>
<path d="M358.497 186.782C365.348 174.538 360.977 159.059 348.733 152.208C336.489 145.357 321.01 149.728 314.159 161.972C307.308 174.215 311.679 189.695 323.923 196.546C336.167 203.397 351.646 199.025 358.497 186.782Z" fill="#FFA030"/>
<path d="M433.435 350.483C432.696 350.483 431.952 350.228 431.349 349.708C430.012 348.553 429.866 346.536 431.021 345.203C431.473 344.678 442.244 332.387 455.635 331.474C457.397 331.356 458.921 332.684 459.04 334.445C459.159 336.207 457.83 337.731 456.069 337.85C445.306 338.585 435.946 349.274 435.854 349.384C435.224 350.114 434.33 350.488 433.435 350.488V350.483Z" fill="#A8D447"/>
<path d="M403.6 360.469C402.902 360.469 402.194 360.24 401.605 359.77C392.641 352.6 378.182 354.786 378.036 354.809C376.293 355.083 374.659 353.896 374.38 352.157C374.102 350.418 375.284 348.78 377.023 348.502C377.726 348.387 394.394 345.822 405.594 354.782C406.973 355.886 407.196 357.894 406.092 359.273C405.462 360.062 404.531 360.473 403.595 360.473L403.6 360.469Z" fill="#A8D447"/>
<path d="M303.663 486.766C303.37 486.766 303.069 486.725 302.777 486.638C282.704 480.848 267.568 479.737 257.369 483.306C255.703 483.89 253.882 483.009 253.298 481.348C252.714 479.682 253.594 477.861 255.256 477.277C269.491 472.293 289.92 476.277 304.548 480.499C306.241 480.988 307.223 482.758 306.734 484.456C306.333 485.857 305.055 486.766 303.667 486.766H303.663Z" fill="#FFC672"/>
<path d="M299.279 469.481C298.348 469.481 297.426 469.08 296.796 468.299C290.781 460.887 281.123 456.67 271.598 457.295C269.836 457.414 268.316 456.077 268.202 454.315C268.088 452.553 269.421 451.033 271.182 450.919C282.743 450.157 294.464 455.274 301.762 464.274C302.876 465.643 302.666 467.656 301.296 468.769C300.703 469.249 299.991 469.481 299.284 469.481H299.279Z" fill="#FFC672"/>
<path d="M544.675 489.591C543.589 489.591 542.53 489.038 541.932 488.039C541.024 486.524 541.517 484.561 543.032 483.657C554.406 476.843 567.874 474.954 584.209 477.884C585.948 478.194 587.103 479.856 586.788 481.594C586.478 483.333 584.816 484.484 583.077 484.173C568.331 481.531 556.304 483.155 546.313 489.139C545.798 489.445 545.232 489.595 544.675 489.595V489.591Z" fill="#FFC672"/>
<path d="M534.749 472.908C533.841 472.908 532.942 472.525 532.308 471.777C531.167 470.43 531.335 468.413 532.682 467.272C539.72 461.316 547.684 456.697 556.351 453.548C558.008 452.945 559.843 453.799 560.445 455.46C561.048 457.117 560.194 458.951 558.533 459.554C550.578 462.448 543.271 466.683 536.808 472.151C536.21 472.657 535.475 472.908 534.745 472.908H534.749Z" fill="#FFC672"/>
<path d="M92.5827 558.777C102.793 558.777 111.204 550.589 111.286 540.375C111.286 540.301 111.286 540.233 111.286 540.16C111.286 530.311 106.083 521.68 98.2787 516.856C102.309 512.091 104.737 505.93 104.737 499.198C104.737 486.354 95.8917 475.578 83.9612 472.626C84.6869 469.759 84.9653 466.71 84.7051 463.57C83.5686 449.787 72.0991 438.929 58.2744 438.514C42.7702 438.048 30.0546 450.476 30.0546 465.875C30.0546 468.075 30.3147 470.211 30.8031 472.26C18.0282 474.574 8.33404 485.752 8.33404 499.198C8.33404 505.601 10.5339 511.489 14.2172 516.153C5.74164 520.808 0 529.813 0 540.16C0 540.233 0 540.301 0 540.375C0.0775897 550.584 8.48922 558.777 18.7037 558.777H92.5827Z" fill="#DCEEB7"/>
<path d="M761.294 558.777C771.504 558.777 779.915 550.589 779.997 540.375C779.997 540.301 779.997 540.233 779.997 540.16C779.997 530.311 774.794 521.68 766.99 516.856C771.02 512.091 773.448 505.93 773.448 499.198C773.448 486.354 764.603 475.578 752.672 472.626C753.398 469.759 753.676 466.71 753.416 463.57C752.28 449.787 740.81 438.929 726.985 438.514C711.481 438.048 698.766 450.476 698.766 465.875C698.766 468.075 699.026 470.211 699.514 472.26C686.739 474.574 677.045 485.752 677.045 499.198C677.045 505.601 679.245 511.489 682.928 516.153C674.453 520.808 668.711 529.813 668.711 540.16C668.711 540.233 668.711 540.306 668.711 540.375C668.789 550.584 677.2 558.777 687.415 558.777H761.294Z" fill="#DCEEB7"/>
<path d="M159.874 558.777C168.354 558.777 175.364 551.986 175.423 543.506C175.423 543.447 175.423 543.387 175.423 543.328C175.423 534.615 170.823 526.984 163.922 522.717C167.487 518.504 169.636 513.055 169.636 507.103C169.636 495.743 161.813 486.213 151.261 483.603C151.9 481.07 152.151 478.386 151.923 475.597C150.955 463.831 141.444 454.374 129.673 453.489C115.451 452.416 103.585 463.639 103.585 477.624C103.585 479.573 103.817 481.462 104.251 483.274C92.9502 485.319 84.3788 495.205 84.3788 507.098C84.3788 512.758 86.3231 517.966 89.5773 522.091C82.0877 526.208 77.0078 534.173 77.0078 543.323C77.0078 543.383 77.0078 543.442 77.0078 543.501C77.0671 551.982 84.0776 558.773 92.5577 558.773H159.869L159.874 558.777Z" fill="#CAE590"/>
<path d="M459.522 532.364C458.691 533.861 458.796 536.089 459.024 539.215C459.124 540.603 459.229 542.04 459.211 543.501C459.188 545.313 458.969 547.033 458.641 548.672C458.641 548.69 458.632 548.713 458.627 548.731C458.025 551.693 457.048 554.382 456.144 556.86C453.853 563.163 452.803 566.645 456.012 570.881C462.648 579.644 473.853 584.605 485.245 583.824C497.121 583.012 510.553 581.46 519.695 573.318C526.518 567.239 529.526 558.631 530.845 552.483C532.821 543.282 533.652 526.422 530.516 519.859C527.645 513.853 522.766 508.937 516.778 506.025C513.058 504.218 508.262 503.515 505.916 506.025C505.167 506.824 504.893 507.276 504.797 507.472C505.035 507.919 505.829 508.828 506.477 509.576C506.924 510.087 507.413 510.649 507.933 511.274C509.106 512.693 510.083 513.793 511.023 514.861C512.903 516.984 514.524 518.818 516.723 522.036C517.271 522.835 517.426 523.843 517.143 524.77C516.86 525.696 516.171 526.445 515.272 526.805C494.364 535.153 481.776 538.499 459.526 532.36L459.522 532.364ZM487.705 544.08C489.357 543.464 491.196 544.309 491.813 545.961C492.429 547.613 491.584 549.452 489.932 550.068C486.664 551.283 483.168 551.876 479.667 551.876C474.063 551.876 468.435 550.351 463.707 547.394C462.21 546.458 461.758 544.487 462.694 542.99C463.629 541.493 465.601 541.041 467.098 541.976C473.136 545.751 481.032 546.559 487.709 544.076L487.705 544.08Z" fill="#FFF4E1"/>
<path d="M340.402 506.025C338.056 503.515 333.259 504.218 329.539 506.025C323.551 508.937 318.672 513.848 315.801 519.859C312.666 526.422 313.496 543.282 315.468 552.483C316.787 558.631 319.795 567.238 326.618 573.318C335.76 581.465 349.192 583.012 361.068 583.824C372.464 584.6 383.665 579.644 390.301 570.881C393.51 566.645 392.46 563.158 390.169 556.86C389.352 554.614 388.471 552.195 387.864 549.557C387.845 549.489 387.832 549.416 387.814 549.343C387.403 547.503 387.124 545.564 387.097 543.501C387.079 542.04 387.184 540.603 387.284 539.215C387.512 536.084 387.617 533.857 386.787 532.364C378.932 534.528 372.277 535.514 366.043 535.514C354.61 535.514 344.569 532.209 331.041 526.805C330.142 526.445 329.452 525.696 329.169 524.77C328.886 523.843 329.042 522.835 329.589 522.036C331.789 518.818 333.409 516.984 335.29 514.861C336.235 513.793 337.207 512.693 338.38 511.274C338.9 510.649 339.388 510.087 339.836 509.576C340.484 508.832 341.278 507.924 341.515 507.472C341.419 507.276 341.141 506.824 340.397 506.025H340.402ZM354.505 545.961C355.121 544.309 356.956 543.464 358.612 544.08C365.29 546.559 373.186 545.755 379.224 541.981C380.721 541.045 382.693 541.502 383.628 542.994C384.564 544.491 384.107 546.463 382.615 547.398C377.887 550.356 372.264 551.88 366.654 551.88C363.149 551.88 359.658 551.287 356.39 550.073C354.737 549.457 353.893 547.618 354.509 545.965L354.505 545.961Z" fill="#FFF4E1"/>
<path d="M386.918 525.688C387.899 525.401 388.962 525.601 389.775 526.231C394.385 529.809 393.983 535.286 393.659 539.686C393.563 541 393.472 542.237 393.485 543.424C393.495 544.282 393.568 545.122 393.682 545.952C402.915 547.372 413.216 548.052 423.636 547.915C433.745 547.778 443.741 546.884 452.7 545.314C452.769 544.693 452.81 544.063 452.819 543.424C452.832 542.237 452.741 540.996 452.645 539.686C452.321 535.286 451.92 529.809 456.529 526.231C457.337 525.601 458.401 525.401 459.386 525.688C470.614 528.974 479.049 529.764 487.437 528.618C487.456 528.449 487.465 528.28 487.46 528.112C487.46 527.952 487.469 527.792 487.492 527.632L502.645 419.227C498.524 422.38 492.535 425.557 483.937 428.51C467.437 434.183 445.512 437.474 422.194 437.78C421.011 437.793 419.829 437.802 418.652 437.802C396.653 437.802 376.023 435.1 360.227 430.13C351.555 427.401 345.48 424.384 341.281 421.335L359.163 528.65C367.452 529.732 375.822 528.924 386.913 525.679L386.918 525.688Z" fill="#D8B495"/>
<path d="M277.662 271.008C278.119 271.008 278.58 270.913 279.018 270.703C280.615 269.954 281.3 268.051 280.551 266.454C264.659 232.625 259.283 192.342 265.417 153.023C271.624 113.238 289.337 76.8348 315.289 50.5138C326.827 38.8115 340.3 29.154 355.334 21.8058C356.918 21.0299 357.575 19.1176 356.804 17.5338C356.028 15.9501 354.115 15.2929 352.532 16.0642C336.849 23.7273 322.792 33.8093 310.743 46.0273C283.86 73.2931 265.522 110.942 259.109 152.037C252.779 192.602 258.342 234.204 274.773 269.169C275.316 270.328 276.466 271.004 277.667 271.004L277.662 271.008Z" fill="#08394A"/>
<path d="M377.793 13.0059C391.376 8.91198 405.292 6.83989 419.149 6.83989C450.91 6.83989 479.061 14.0968 502.822 28.4097C528.007 43.5806 547.893 66.5242 561.932 96.606C561.95 96.6425 561.968 96.679 561.982 96.711C562.082 96.9026 572.005 116.387 580.677 144.41C588.659 170.215 597.153 208.677 592.288 245.376C592.055 247.124 593.287 248.731 595.035 248.964C595.177 248.982 595.318 248.991 595.46 248.991C597.039 248.991 598.408 247.823 598.623 246.216C603.643 208.371 594.953 168.937 586.783 142.525C578.093 114.438 568.408 95.2459 567.701 93.8539C553.118 62.6265 532.397 38.7701 506.122 22.9419C481.348 8.01742 452.088 0.450195 419.149 0.450195C404.667 0.450195 390.13 2.61813 375.949 6.8901C374.261 7.40127 373.302 9.18126 373.813 10.87C374.324 12.5587 376.104 13.5171 377.793 13.0059Z" fill="#08394A"/>
<path d="M390.128 173.41C388.991 174.761 389.16 176.774 390.511 177.91C397.216 183.56 405.979 186.742 414.746 186.742C415.184 186.742 415.627 186.732 416.065 186.719C425.267 186.381 434.317 182.502 440.903 176.066C442.167 174.834 442.19 172.812 440.958 171.548C439.726 170.284 437.704 170.261 436.439 171.493C430.976 176.828 423.464 180.051 415.833 180.329C408.201 180.607 400.474 177.947 394.632 173.022C393.281 171.886 391.269 172.054 390.132 173.405L390.128 173.41Z" fill="#08394A"/>
<path d="M408.5 160.467C410.216 158.724 417.007 158.596 418.732 160.271C419.997 161.499 422.019 161.472 423.251 160.207C424.479 158.943 424.451 156.921 423.187 155.689C418.933 151.554 408.144 151.723 403.949 155.986C402.712 157.245 402.726 159.267 403.986 160.504C404.607 161.116 405.419 161.421 406.227 161.421C407.035 161.421 407.879 161.102 408.504 160.467H408.5Z" fill="#08394A"/>
<path d="M337.216 341.819C335.819 341.568 334.427 342.276 333.797 343.544C333.168 344.813 333.451 346.347 334.491 347.31C347.85 359.651 365.171 367.506 383.259 369.423C386.422 369.756 389.744 369.623 392.953 369.496C401.022 369.172 408.649 368.866 414.975 375.178C415.294 375.497 415.664 375.73 416.061 375.89C416.408 385.47 417.517 397.779 420.351 411.394C420.666 412.9 421.994 413.936 423.477 413.936C423.692 413.936 423.911 413.913 424.135 413.868C425.86 413.507 426.969 411.814 426.613 410.089C420.424 380.386 422.788 356.47 422.816 356.191C422.998 354.439 421.725 352.864 419.968 352.682C418.21 352.499 416.64 353.772 416.458 355.525C416.412 355.945 415.97 360.395 415.933 367.675C408.471 362.485 400.159 362.814 392.702 363.111C389.584 363.234 386.636 363.352 383.934 363.069C370.178 361.609 356.905 356.442 345.751 348.305C351.474 347.62 357.042 345.726 362.492 343.868C370.365 341.185 377.805 338.652 385.217 339.756C388.001 340.172 390.926 341.148 393.911 342.664C400.137 345.826 405.216 350.66 408.206 356.269C409.037 357.825 410.972 358.414 412.528 357.588C414.085 356.757 414.673 354.822 413.847 353.266C410.246 346.506 404.194 340.719 396.809 336.968C393.213 335.142 389.63 333.951 386.161 333.435C377.211 332.102 368.685 335.01 360.434 337.821C352.378 340.564 344.77 343.156 337.221 341.819H337.216Z" fill="#08394A"/>
<path d="M466.014 344.353C456.74 350.962 446.407 353.436 437.671 351.136C435.964 350.684 434.216 351.706 433.769 353.413C433.322 355.12 434.34 356.868 436.047 357.315C438.716 358.018 441.491 358.365 444.326 358.365C452.728 358.365 461.633 355.33 469.725 349.561C477.995 343.669 483.604 336.348 489.547 328.598C490.017 327.982 490.492 327.366 490.971 326.745C491.053 326.709 491.14 326.672 491.217 326.631C492.555 325.951 493.299 324.509 493.07 323.039C492.865 321.72 491.829 320.182 489.542 319.821C478.237 318.032 466.138 316.627 454.257 318.457C440.811 320.529 429.579 326.636 422.623 335.654C419.744 339.388 418.689 344.011 419.734 348.333C420.15 350.049 421.875 351.104 423.591 350.688C425.307 350.273 426.361 348.548 425.946 346.832C425.357 344.404 425.992 341.752 427.685 339.557C433.637 331.843 443.418 326.595 455.234 324.769C464.691 323.313 474.504 324.098 483.924 325.431C478.484 332.523 473.262 339.196 466.019 344.358L466.014 344.353Z" fill="#08394A"/>
<path d="M398.919 299.409C398.919 310.486 408.723 319.5 420.777 319.5C432.83 319.5 442.584 310.532 442.634 299.496L442.967 292.924C484.332 286.078 520.484 261.596 542.373 226.161C541.529 232.819 540.475 239.675 539.206 246.749C538.895 248.488 540.05 250.145 541.785 250.46C541.976 250.492 542.163 250.51 542.35 250.51C543.866 250.51 545.212 249.424 545.491 247.876C551.483 214.481 552.816 185.718 549.566 159.959C545.824 130.283 536.034 103.629 519.644 78.4718C518.681 76.9931 516.7 76.5778 515.221 77.5408C513.743 78.5038 513.327 80.4846 514.29 81.9634C514.884 82.8716 515.463 83.7799 516.034 84.6927C504.29 87.066 488.932 89.5488 473.515 88.0518C462.734 87.0021 447.303 83.4741 435.012 72.607C433.688 71.4386 431.671 71.5618 430.503 72.8854C429.334 74.209 429.457 76.2263 430.781 77.3947C444.355 89.3937 461.173 93.2731 472.899 94.4096C476.372 94.7473 479.831 94.8934 483.245 94.8934C495.984 94.8934 508.07 92.8304 517.718 90.8724C518.334 90.7492 518.868 90.4525 519.288 90.0463C532.15 111.995 540.009 135.221 543.227 160.757C545.144 175.942 545.413 192.227 544.035 209.972C543.907 210.141 543.793 210.323 543.697 210.519C523.738 251.56 484.984 280.117 440.028 286.917C438.923 287.086 438.038 287.798 437.604 288.743C437.066 289.282 436.714 290.012 436.673 290.829L436.249 299.245C436.249 299.3 436.249 299.354 436.249 299.405C436.249 306.958 429.311 313.106 420.781 313.106C412.251 313.106 405.313 306.958 405.313 299.405V294.22C409.882 294.649 414.496 294.868 419.152 294.868C420.201 294.868 421.26 294.859 422.306 294.836C424.072 294.8 425.468 293.339 425.432 291.573C425.395 289.811 423.949 288.414 422.169 288.446C421.169 288.469 420.156 288.478 419.152 288.478C413.757 288.478 408.422 288.177 403.15 287.575C402.826 287.465 402.479 287.401 402.114 287.401C402.018 287.401 401.922 287.406 401.826 287.415C386.427 285.507 371.598 281.043 357.568 274.06C339.234 264.937 322.84 251.569 310.166 235.398C310.156 235.389 310.147 235.38 310.143 235.371C305.077 219.935 301.247 205.111 299.709 189.872C296.925 162.241 302.11 134.491 316.03 102.547C316.733 100.932 315.994 99.0467 314.378 98.3438C312.763 97.6409 310.878 98.3803 310.175 99.996C278.97 171.615 294.625 213.454 316.286 271.363C316.765 272.646 317.984 273.44 319.28 273.44C319.654 273.44 320.029 273.376 320.398 273.234C322.051 272.618 322.89 270.774 322.27 269.122C319.997 263.043 317.788 257.141 315.697 251.368C327.03 262.92 340.302 272.609 354.725 279.784C368.769 286.771 383.565 291.354 398.924 293.485V299.409H398.919Z" fill="#08394A"/>
<path d="M363.891 287.964C357.821 291.205 350.24 291.287 344.101 288.179L343.964 288.11C342.951 287.595 341.422 286.819 339.546 287.074C337.118 287.408 335.74 289.178 334.827 290.351L334.585 290.662C330.924 295.267 315.233 294.162 308.542 290.931C301.144 287.357 294.841 282.451 290.304 276.741C289.209 275.358 287.196 275.13 285.817 276.226C284.435 277.321 284.206 279.334 285.302 280.712C290.432 287.17 297.506 292.697 305.763 296.686C309.784 298.631 316.694 300.15 323.385 300.15C330.076 300.15 336.383 298.667 339.583 294.642C339.678 294.523 339.77 294.404 339.866 294.281C340.044 294.048 340.29 293.738 340.482 293.523C340.669 293.61 340.892 293.72 341.061 293.806L341.207 293.879C349.176 297.914 359.016 297.804 366.894 293.601C368.45 292.77 369.039 290.835 368.209 289.279C367.378 287.722 365.443 287.134 363.886 287.964H363.891Z" fill="#08394A"/>
<path d="M579.933 266.53C575.4 268.931 569.901 269.319 564.579 269.693L555.017 270.364C553.05 270.501 550.823 270.661 548.632 271.505C545.62 272.665 543.411 274.846 541.457 276.768C540.531 277.68 539.654 278.543 538.742 279.264C535.045 282.194 529.691 283.5 523.671 282.947C517.957 282.423 512.288 280.378 506.807 278.406C505.145 277.808 503.315 278.671 502.717 280.328C502.119 281.989 502.982 283.819 504.639 284.417C510.499 286.526 516.555 288.712 523.082 289.31C524.177 289.41 525.255 289.46 526.318 289.46C532.694 289.46 538.422 287.662 542.703 284.276C543.885 283.34 544.926 282.313 545.935 281.318C547.587 279.689 549.152 278.151 550.923 277.466C552.219 276.964 553.794 276.854 555.46 276.736L565.022 276.065C570.727 275.663 577.194 275.207 582.917 272.172C588.513 269.205 593.944 262.564 592.662 254.983C592.365 253.244 590.717 252.071 588.979 252.368C587.24 252.665 586.067 254.312 586.363 256.051C587.084 260.305 583.671 264.541 579.928 266.526L579.933 266.53Z" fill="#08394A"/>
<path d="M343.309 515.349C343.789 514.77 344.24 514.254 344.656 513.779C347.312 510.735 350.329 507.285 345.071 501.662C340.188 496.436 332.15 497.65 326.746 500.279C319.462 503.821 313.529 509.795 310.037 517.102C305.797 525.975 307.413 545.399 309.225 553.824C310.745 560.903 314.259 570.862 322.374 578.092C327.157 582.35 333.131 585.38 340.648 587.348C347.426 589.123 354.555 589.785 360.635 590.205C361.561 590.269 362.483 590.301 363.405 590.301C375.952 590.301 388.019 584.49 395.399 574.746C400.858 567.54 398.371 560.707 396.175 554.683C395.933 554.016 395.687 553.341 395.45 552.665C403.487 553.756 412.195 554.322 421.027 554.322C421.926 554.322 422.83 554.317 423.733 554.304C433.167 554.176 442.515 553.405 451.081 552.058C450.78 552.944 450.461 553.815 450.146 554.683C447.95 560.712 445.468 567.54 450.922 574.746C458.302 584.495 470.369 590.301 482.916 590.301C483.838 590.301 484.76 590.269 485.686 590.205C499.566 589.255 513.81 587.128 523.947 578.092C532.058 570.862 535.572 560.908 537.092 553.824C538.899 545.399 540.52 525.979 536.279 517.102C532.788 509.795 526.855 503.821 519.57 500.279C514.166 497.65 506.129 496.436 501.245 501.662C495.992 507.285 499.004 510.735 501.661 513.779C502.076 514.254 502.528 514.77 503.007 515.349C504.249 516.846 505.303 518.042 506.234 519.092C507.238 520.224 508.124 521.228 509.05 522.387C503.532 524.519 498.662 526.203 493.989 527.353L510.565 408.737C510.921 407.446 511.058 406.218 511.04 405.077C510.93 396.766 502.943 389.454 487.937 383.932C474.313 378.916 455.636 375.712 435.34 374.899C433.578 374.84 432.09 376.2 432.022 377.966C431.953 379.728 433.323 381.216 435.089 381.284C454.737 382.069 472.724 385.137 485.737 389.929C497.539 394.274 504.404 399.742 504.646 404.958L504.312 407.332C500.666 418.66 468.005 430.786 422.118 431.389C420.936 431.403 419.772 431.412 418.608 431.412C374.546 431.412 343.136 420.426 339.311 409.486L338.923 407.144C339.083 398.45 358.138 387.382 394.532 382.896C396.285 382.681 397.526 381.084 397.312 379.336C397.097 377.583 395.5 376.337 393.752 376.556C376.472 378.688 361.598 382.485 350.735 387.542C335.738 394.525 332.538 402.074 332.534 407.24C332.534 407.268 332.534 407.291 332.534 407.318C332.534 407.35 332.534 407.386 332.534 407.418C332.547 408.55 332.712 409.764 333.099 411.038L352.488 527.389C347.768 526.239 342.848 524.541 337.271 522.383C338.198 521.223 339.083 520.224 340.087 519.087C341.018 518.033 342.072 516.842 343.314 515.345L343.309 515.349ZM515.271 526.805C516.17 526.445 516.859 525.696 517.142 524.77C517.425 523.843 517.27 522.834 516.722 522.036C514.522 518.818 512.902 516.983 511.022 514.861C510.077 513.793 509.105 512.693 507.932 511.274C507.416 510.648 506.923 510.087 506.476 509.576C505.828 508.832 505.034 507.924 504.796 507.472C504.892 507.276 505.171 506.824 505.915 506.025C508.26 503.515 513.057 504.218 516.777 506.025C522.765 508.937 527.644 513.848 530.515 519.859C533.651 526.422 532.82 543.281 530.844 552.483C529.525 558.63 526.517 567.238 519.694 573.318C510.552 581.465 497.12 583.012 485.244 583.824C473.852 584.605 462.647 579.643 456.011 570.88C452.802 566.645 453.852 563.158 456.143 556.86C457.047 554.381 458.023 551.693 458.626 548.731C458.626 548.713 458.635 548.69 458.64 548.672C458.968 547.033 459.187 545.312 459.21 543.501C459.228 542.04 459.123 540.602 459.023 539.215C458.795 536.084 458.69 533.861 459.52 532.364C481.775 538.498 494.358 535.153 515.266 526.81L515.271 526.805ZM341.287 421.339C345.491 424.383 351.561 427.4 360.233 430.134C376.029 435.104 396.659 437.806 418.658 437.806C419.836 437.806 421.018 437.797 422.2 437.783C445.518 437.477 467.448 434.187 483.943 428.513C492.537 425.556 498.53 422.384 502.651 419.23L487.498 527.636C487.476 527.796 487.466 527.955 487.466 528.115C487.466 528.284 487.462 528.453 487.444 528.622C479.055 529.763 470.62 528.973 459.393 525.692C458.411 525.404 457.348 525.605 456.536 526.235C451.926 529.813 452.327 535.29 452.651 539.69C452.747 540.999 452.839 542.241 452.825 543.428C452.816 544.067 452.775 544.692 452.706 545.317C443.747 546.883 433.756 547.782 423.642 547.919C413.222 548.056 402.921 547.375 393.688 545.956C393.574 545.13 393.501 544.286 393.492 543.428C393.478 542.241 393.569 540.999 393.665 539.69C393.989 535.29 394.386 529.813 389.781 526.235C388.969 525.605 387.91 525.404 386.924 525.692C375.833 528.937 367.463 529.744 359.174 528.663L341.292 421.348L341.287 421.339ZM338.385 511.274C337.212 512.693 336.235 513.793 335.295 514.861C333.414 516.983 331.794 518.818 329.594 522.036C329.047 522.834 328.891 523.843 329.174 524.77C329.457 525.696 330.146 526.445 331.046 526.805C344.574 532.204 354.615 535.513 366.048 535.513C372.282 535.513 378.937 534.528 386.792 532.364C387.622 533.861 387.517 536.089 387.289 539.215C387.189 540.602 387.084 542.04 387.102 543.501C387.129 545.564 387.408 547.503 387.818 549.343C387.832 549.416 387.846 549.484 387.869 549.557C388.476 552.195 389.357 554.614 390.174 556.86C392.469 563.163 393.514 566.645 390.306 570.88C383.67 579.643 372.469 584.6 361.073 583.824C349.197 583.012 335.765 581.46 326.623 573.318C319.8 567.238 316.792 558.63 315.473 552.483C313.497 543.281 312.666 526.422 315.806 519.859C318.677 513.852 323.556 508.937 329.544 506.025C333.259 504.218 338.061 503.515 340.407 506.025C341.155 506.824 341.429 507.276 341.525 507.472C341.287 507.919 340.493 508.832 339.845 509.576C339.398 510.087 338.91 510.648 338.389 511.274H338.385Z" fill="#08394A"/>
<path d="M356.368 550.074C359.636 551.288 363.127 551.882 366.632 551.882C372.237 551.882 377.865 550.357 382.593 547.4C384.09 546.464 384.542 544.493 383.606 542.996C382.671 541.499 380.699 541.047 379.202 541.982C373.164 545.757 365.263 546.56 358.59 544.082C356.938 543.47 355.099 544.31 354.483 545.962C353.867 547.614 354.711 549.454 356.363 550.07L356.368 550.074Z" fill="#08394A"/>
<path d="M213.816 501.595C214.053 501.65 214.286 501.672 214.518 501.672C215.979 501.672 217.298 500.664 217.631 499.176C226.463 459.829 244.377 416.991 270.867 371.838C281.305 354.048 296.106 339.246 314.856 327.841C331.679 317.608 351.368 310.255 373.367 305.983C375.102 305.646 376.229 303.971 375.896 302.236C375.558 300.502 373.883 299.375 372.149 299.708C349.401 304.126 329.009 311.752 311.533 322.377C291.866 334.335 276.33 349.89 265.349 368.598C238.521 414.321 220.365 457.78 211.387 497.77C210.999 499.491 212.081 501.202 213.806 501.586L213.816 501.595Z" fill="#08394A"/>
<path d="M221.038 517.034C219.97 515.633 217.962 515.359 216.561 516.427C215.155 517.495 214.886 519.503 215.954 520.904C228.094 536.833 241.248 549.416 256.164 559.375C270.901 569.211 287.072 576.289 305.602 581.013C305.867 581.082 306.131 581.114 306.392 581.114C307.816 581.114 309.116 580.151 309.486 578.708C309.924 576.997 308.888 575.258 307.181 574.824C271.526 565.733 244.151 547.371 221.038 517.034Z" fill="#08394A"/>
<path d="M462.689 542.994C461.754 544.491 462.21 546.462 463.702 547.398C468.431 550.356 474.054 551.88 479.663 551.88C483.164 551.88 486.664 551.287 489.928 550.073C491.58 549.457 492.424 547.617 491.808 545.965C491.192 544.313 489.353 543.468 487.7 544.085C481.023 546.563 473.127 545.76 467.089 541.985C465.592 541.05 463.62 541.506 462.685 542.998L462.689 542.994Z" fill="#08394A"/>
<path d="M535.421 316.339C518.867 306.549 499.214 299.973 475.339 296.239C473.6 295.97 471.961 297.157 471.688 298.9C471.414 300.644 472.605 302.278 474.349 302.551C519.752 309.653 548.634 326.577 574.047 360.953C585.895 376.978 597.337 398.538 607.146 423.298C616.196 446.155 623.503 471.025 627.716 493.325C628.003 494.858 629.345 495.926 630.851 495.926C631.048 495.926 631.249 495.908 631.449 495.872C633.184 495.543 634.325 493.873 633.996 492.138C629.71 469.45 622.285 444.17 613.088 420.948C603.079 395.681 591.358 373.618 579.186 357.156C565.804 339.055 551.897 326.084 535.416 316.339H535.421Z" fill="#08394A"/>
<path d="M630.688 520.425C631.491 518.855 630.866 516.929 629.296 516.126C627.726 515.322 625.8 515.948 624.997 517.518C608.242 550.352 566.704 571.123 533.413 579.607C531.702 580.041 530.67 581.784 531.109 583.491C531.478 584.938 532.774 585.897 534.203 585.897C534.463 585.897 534.728 585.865 534.993 585.796C569.634 576.965 612.966 555.153 630.688 520.421V520.425Z" fill="#08394A"/>
<path d="M442 97.272C441.904 95.5103 440.402 94.1593 438.636 94.2551C414.88 95.5377 389.156 80.5264 381.302 60.7914C380.649 59.1529 378.791 58.3496 377.153 59.0069C375.514 59.6595 374.716 61.5171 375.368 63.1556C379.795 74.2828 389.038 84.2644 401.384 91.2657C412.223 97.4135 424.332 100.718 435.824 100.718C436.883 100.718 437.937 100.69 438.983 100.631C440.744 100.535 442.095 99.0292 442 97.2674V97.272Z" fill="#08394A"/>
<path d="M324.013 87.5227C322.274 87.824 321.11 89.4807 321.416 91.2196C321.685 92.7714 323.036 93.8668 324.561 93.8668C324.743 93.8668 324.926 93.8531 325.113 93.8166C339.659 91.279 353.26 83.1914 362.438 71.6261C363.533 70.2432 363.301 68.235 361.922 67.1396C360.539 66.0442 358.531 66.2724 357.436 67.6554C349.22 78.0112 337.043 85.2544 324.018 87.5227H324.013Z" fill="#08394A"/>
<path d="M346.612 150.559C347.242 151.225 348.086 151.563 348.935 151.563C349.72 151.563 350.51 151.275 351.126 150.691C359.551 142.745 371.879 138.998 383.298 140.906C385.037 141.198 386.685 140.02 386.977 138.281C387.269 136.542 386.091 134.895 384.352 134.603C371.002 132.371 356.589 136.752 346.744 146.04C345.462 147.25 345.402 149.272 346.612 150.559Z" fill="#08394A"/>
<path d="M450.485 139.167C461.754 136.501 474.3 139.422 483.237 146.793C483.83 147.286 484.551 147.524 485.268 147.524C486.19 147.524 487.103 147.126 487.732 146.36C488.855 145 488.663 142.987 487.299 141.864C476.856 133.252 462.187 129.838 449.011 132.95C447.295 133.357 446.231 135.077 446.637 136.793C447.043 138.509 448.764 139.573 450.48 139.167H450.485Z" fill="#08394A"/>
<path d="M149.767 93.5748C154.244 87.7785 155.59 79.5951 153.445 72.1055C145.846 73.9265 139.767 77.3678 134.915 82.5754C130.835 86.9615 128.119 96.9523 129.908 105.592C139.182 102.781 145.695 98.8327 149.762 93.5703L149.767 93.5748Z" fill="#35B46F"/>
<path d="M127.672 112.736C127.937 112.736 128.211 112.704 128.48 112.631C140.803 109.418 149.415 104.461 154.81 97.4829C161.154 89.2722 162.601 77.3873 158.498 67.2095C157.932 65.8037 156.453 64.9868 154.961 65.2606C144.696 67.1319 136.604 71.3765 130.228 78.2271C122.67 86.3466 121.451 101.349 124.655 110.591C125.112 111.901 126.339 112.741 127.672 112.741V112.736ZM134.902 82.5767C139.753 77.3645 145.833 73.9232 153.432 72.1067C155.577 79.5963 154.231 87.7797 149.753 93.5761C145.687 98.8385 139.174 102.786 129.899 105.598C128.11 96.9581 130.821 86.9673 134.906 82.5812L134.902 82.5767Z" fill="#08394A"/>
<path d="M148.758 285.513C152.505 295.235 157.247 301.894 163.212 305.814C169.803 310.15 178.717 310.903 186.567 307.932C184.025 299.918 179.858 293.679 173.879 288.905C167.722 283.994 156.54 283.3 148.758 285.509V285.513Z" fill="#35B46F"/>
<path d="M143.368 280.648C141.839 281.31 141.077 283.04 141.62 284.619C145.997 297.353 151.907 306.034 159.689 311.154C164.673 314.431 170.689 316.093 176.809 316.093C181.916 316.093 187.097 314.938 191.816 312.606C193.176 311.935 193.874 310.397 193.491 308.932C190.693 298.265 185.581 290.082 177.85 283.916C168.708 276.623 152.834 276.541 143.368 280.653V280.648ZM186.554 307.932C178.703 310.903 169.79 310.15 163.199 305.814C157.234 301.889 152.487 295.23 148.745 285.513C156.531 283.304 167.713 283.994 173.865 288.909C179.844 293.679 184.011 299.922 186.554 307.937V307.932Z" fill="#08394A"/>
<path d="M700.428 249.097C704.143 239.627 704.951 230.613 702.897 221.622C700.766 212.279 690.515 203.155 681.496 199.577C677.635 211.576 677.064 221.425 679.744 229.613C682.719 238.709 690.684 246.131 700.428 249.097Z" fill="#35B46F"/>
<path d="M701.62 256.006C701.848 256.056 702.072 256.079 702.3 256.079C703.541 256.079 704.701 255.349 705.221 254.176C710.392 242.482 711.67 231.364 709.119 220.201C706.116 207.047 691.83 195.559 680.315 192.46C678.708 192.027 677.033 192.903 676.472 194.473C671.228 209.21 670.31 221.355 673.66 231.602C677.581 243.596 688.557 253.176 701.62 256.01V256.006ZM681.488 199.576C690.502 203.154 700.757 212.277 702.889 221.62C704.943 230.611 704.135 239.625 700.42 249.096C690.68 246.134 682.711 238.708 679.735 229.612C677.056 221.424 677.631 211.575 681.488 199.576Z" fill="#08394A"/>
<path d="M743.772 344.919C736.857 348.451 731.691 358.205 730.504 366.105C740.764 366.685 748.674 365.119 754.625 361.354C761.197 357.196 765.497 349.492 766.026 341.236C757.793 340.273 750.486 341.482 743.767 344.919H743.772Z" fill="#35B46F"/>
<path d="M769.793 335.324C759.036 333.498 749.574 334.776 740.862 339.231C730.551 344.502 724.006 358.788 723.856 369.002C723.833 370.668 725.093 372.074 726.754 372.229C729.465 372.485 732.048 372.613 734.508 372.613C744.098 372.613 751.847 370.677 758.045 366.757C767.196 360.965 772.856 349.82 772.459 338.368C772.409 336.853 771.295 335.584 769.803 335.329L769.793 335.324ZM754.622 361.353C748.671 365.118 740.757 366.684 730.501 366.104C731.688 358.204 736.854 348.45 743.769 344.918C750.487 341.486 757.79 340.272 766.028 341.235C765.499 349.491 761.195 357.195 754.627 361.353H754.622Z" fill="#08394A"/>
</g>
<defs>
<clipPath id="clip0_227_1122">
<rect width="780" height="589.846" fill="white" transform="translate(0 0.450195)"/>
</clipPath>
</defs>
</svg>
