<svg width="780" height="674" viewBox="0 0 780 674" fill="none" xmlns="http://www.w3.org/2000/svg">
<g clip-path="url(#clip0_227_1076)">
<path d="M630.861 362.252C630.973 308.538 601.016 261.788 556.854 237.923C570.168 216.461 577.89 191.157 577.944 164.044C578.11 86.2251 515.157 23.0083 437.343 22.8468C414.692 22.7979 393.284 28.1071 374.302 37.5659C345.549 14.1563 308.888 0.083081 268.924 -0.000105465C176.347 -0.195838 101.141 74.6916 100.945 167.263C100.93 174.364 101.361 181.361 102.203 188.231C44.9359 193.829 0.127493 242.048 0.000266046 300.812C-0.0829209 339.616 19.3486 373.903 49.0365 394.402C42.9345 408.279 39.5287 423.61 39.4945 439.733C39.3624 502.338 90.0085 553.2 152.614 553.337C162.151 553.356 171.414 552.192 180.271 549.994C205.761 585.701 247.501 609.018 294.722 609.116C364.775 609.262 422.986 558.264 434.026 491.314C451.084 498.698 469.889 502.818 489.658 502.857C567.477 503.023 630.694 440.071 630.856 362.257L630.861 362.252Z" fill="white"/>
<path d="M377.43 438.828C377.43 438.828 410.949 369.049 488.259 359.473C565.564 349.897 597.033 341.686 672.968 397.098C672.968 397.098 723.595 456.615 718.119 560.603L627.818 552.392L650.395 570.179L648.345 673.482L389.751 672.797L377.435 438.833L377.43 438.828Z" fill="#FFE2B7"/>
<path d="M565.218 490.134C565.218 490.134 543.668 431.645 512.37 433.181C512.37 433.181 483.123 442.929 482.1 454.731C481.072 466.534 493.389 473.204 493.389 473.204C493.389 473.204 494.93 532.207 529.82 522.974L611.402 644.064C611.402 644.064 653.475 689.728 689.392 637.394C689.392 637.394 704.787 584.032 701.704 560.946L630.897 552.221L629.356 566.074L565.218 490.139V490.134Z" fill="#FFF4E1"/>
<path d="M649.724 175.444C645.726 151.134 632.817 142.39 620.618 139.811C598.769 85.5101 545.608 47.1709 483.487 47.1709C402.776 47.1709 337.191 111.88 335.752 192.243C329.351 196.716 317.803 207.706 319.301 228.116C321.224 254.427 335.791 281.341 360.742 277.23C387.269 316.719 432.342 342.703 483.487 342.703C553.638 342.703 612.373 293.819 627.484 228.253C640.045 220.654 654.627 205.23 649.729 175.435L649.724 175.444Z" fill="#FFF4E1"/>
<path d="M332.261 190.491C332.261 190.491 359.625 137.13 375.362 126.868C391.099 116.607 392.464 111.988 395.885 118.144C399.305 124.299 399.99 146.021 442.406 150.811C484.821 155.602 473.875 128.919 473.875 128.919C473.875 128.919 525.182 137.81 545.024 124.813C545.024 124.813 591.545 155.597 595.651 202.118C595.651 202.118 597.021 163.123 592.916 141.915C592.916 141.915 614.123 135.76 625.07 142.6C625.07 142.6 603.177 58.4549 498.508 43.4031C393.839 28.3512 324.74 130.284 332.266 190.486L332.261 190.491Z" fill="#D8B495"/>
<path d="M539.04 236.836C552.903 235.662 563.189 223.473 562.015 209.61C560.841 195.747 548.652 185.46 534.789 186.634C520.926 187.808 510.639 199.998 511.813 213.861C512.987 227.724 525.177 238.01 539.04 236.836Z" fill="#FFE4B6"/>
<path d="M385.613 272.2C376.864 276.565 366.794 275.366 359.429 269.949C355.524 260.108 352.769 250.067 351.105 239.987C353.347 234.585 357.472 229.931 363.114 227.118C375.562 220.908 390.693 225.963 396.902 238.411C403.117 250.865 398.057 265.99 385.608 272.2H385.613Z" fill="#FFE4B6"/>
<path d="M498.927 374.521C506.258 373.473 512.732 369.627 517.16 363.687C521.315 358.118 523.184 351.341 522.499 344.476C512.184 347.157 501.614 348.762 490.883 349.266L494.249 371.046C494.597 373.278 496.701 374.834 498.927 374.516V374.521Z" fill="#FFF4E1"/>
<path d="M491.468 481.849C491.458 477.513 491.458 476.349 488.747 474.088C488.234 473.657 487.48 473.281 486.687 472.874C485.904 472.478 485.014 472.028 484.148 471.431C478.873 467.8 476.925 459.98 479.607 453.242C480.13 451.921 480.796 450.703 481.54 449.563C467.334 438.969 448.333 437.104 432.249 444.973C431.618 445.286 431.03 445.677 430.507 446.132C429.729 446.817 428.686 447.111 427.659 446.94C426.636 446.764 425.75 446.132 425.246 445.227L412.979 423.144L295.788 488.249L331.338 552.249C331.989 553.418 331.896 554.857 331.108 555.934C330.32 557.015 328.97 557.534 327.663 557.269L234.2 538.347C233.217 538.146 232.37 537.53 231.886 536.654L226.18 526.388L197.887 542.105L211.774 542.35C212.166 542.355 212.552 542.433 212.919 542.57L354.665 595.917C355.423 596.201 356.059 596.749 356.451 597.458L369.526 621.005L486.722 555.904L474.449 533.811C473.945 532.906 473.881 531.824 474.268 530.86C474.655 529.901 475.457 529.167 476.45 528.869C477.028 528.692 477.532 528.482 478.002 528.223C478.026 528.208 478.046 528.198 478.07 528.184C478.158 528.14 478.241 528.086 478.325 528.032C478.339 528.022 478.354 528.012 478.369 528.003C486.78 522.742 493.186 515.172 496.983 506.056C493.607 499.161 491.62 491.484 491.483 484.036C491.468 483.258 491.468 482.529 491.463 481.844L491.468 481.849ZM483.786 496.475C481.618 504.069 476.744 510.553 470.065 514.732C469.707 514.957 469.36 515.211 469.037 515.5C468.406 516.053 467.598 516.356 466.776 516.356C466.581 516.356 466.39 516.342 466.194 516.307C465.171 516.131 464.286 515.5 463.782 514.595L435.929 464.453C435.425 463.548 435.361 462.461 435.748 461.502C436.139 460.543 436.942 459.809 437.935 459.511C438.351 459.383 438.752 459.227 439.134 459.041C454.367 451.588 472.761 457.377 481.006 472.219C485.146 479.671 486.134 488.283 483.79 496.475H483.786Z" fill="#CEE799"/>
<path d="M453.835 268.448C463.328 268.345 473.384 262.385 474.455 249.3C474.675 246.604 474.475 244.177 474.206 242.391L432.695 251.659C434.966 263.368 444.708 268.555 453.839 268.443L453.835 268.448Z" fill="#F3C7C5"/>
<path d="M492.365 183.955C485.901 185.227 481.688 191.495 482.956 197.964C484.228 204.428 490.496 208.641 496.965 207.374C503.429 206.102 507.643 199.833 506.375 193.364C505.103 186.9 498.834 182.687 492.365 183.955Z" fill="#08394A"/>
<path d="M400.307 205.724C393.843 206.996 389.63 213.265 390.897 219.734C392.169 226.198 398.438 230.411 404.907 229.144C411.371 227.871 415.584 221.603 414.317 215.134C413.044 208.67 406.776 204.457 400.307 205.724Z" fill="#08394A"/>
<path d="M342.898 220.32C342.937 218.426 341.435 216.865 339.541 216.826C337.638 216.792 336.087 218.289 336.047 220.183C335.715 236.791 340.505 254.647 349.91 271.822C358.327 287.197 369.953 301.398 383.537 312.882C411.42 336.463 446.916 349.45 483.484 349.45C483.655 349.45 483.827 349.445 484.003 349.445L487.506 372.101C488.343 377.503 493.051 381.413 498.375 381.413C498.883 381.413 499.402 381.379 499.921 381.301C509.071 379.994 517.15 375.194 522.675 367.78C528.102 360.499 530.402 351.569 529.188 342.585C531.669 341.821 534.13 340.999 536.577 340.104C552.989 334.114 568.188 325.424 581.747 314.277C608.617 292.188 627.402 261.493 634.767 227.719C635.07 227.499 635.379 227.278 635.672 227.053C643.051 221.392 648.219 214.448 651.032 206.404C653.988 197.948 654.433 188.005 652.349 176.838C651.042 169.87 648.043 162.471 643.898 156.007C639.587 149.279 634.341 143.95 628.533 140.29C616.451 108.038 593.619 80.3957 564.117 62.3687C562.502 61.3803 560.393 61.8892 559.409 63.504C558.421 65.1188 558.93 67.2278 560.545 68.2113C586.709 84.2027 607.384 108.102 619.456 136.087C618.139 135.685 616.803 135.357 615.458 135.118C608.015 133.782 600.308 134.907 592.523 138.465C590.477 131.771 588.094 125.189 585.383 118.769C584.649 117.027 582.638 116.21 580.896 116.944C579.154 117.678 578.337 119.689 579.071 121.431C589.773 146.778 595.204 174.719 594.774 202.234C594.744 204.128 596.251 205.684 598.145 205.714C598.165 205.714 598.179 205.714 598.199 205.714C600.068 205.714 601.595 204.216 601.624 202.342C601.923 183.155 599.466 163.773 594.441 145.139C601.262 141.831 607.922 140.725 614.249 141.861C626.487 144.053 634.464 153.977 638.129 159.702C641.808 165.442 644.47 171.974 645.615 178.091C649.207 197.336 644.593 211.571 631.508 221.607C627.427 224.739 622.401 227.553 616.578 229.965C614.831 230.689 614 232.695 614.729 234.442C615.277 235.759 616.549 236.556 617.895 236.556C618.33 236.556 618.775 236.473 619.206 236.292C621.77 235.23 624.187 234.09 626.473 232.881C618.531 262.53 601.321 289.316 577.407 308.977C564.45 319.63 549.926 327.934 534.238 333.659C519.391 339.081 503.836 342.046 487.937 342.516C487.448 342.36 486.924 342.311 486.386 342.394C486.156 342.428 485.931 342.487 485.72 342.565C484.977 342.575 484.233 342.59 483.489 342.59C448.536 342.59 414.61 330.18 387.966 307.641C375.209 296.852 363.827 282.96 355.924 268.524C347.097 252.396 342.595 235.724 342.903 220.315L342.898 220.32ZM522.523 344.478C523.208 351.344 521.334 358.116 517.185 363.69C512.761 369.625 506.282 373.476 498.952 374.523C496.726 374.841 494.616 373.285 494.274 371.054L490.907 349.274C501.638 348.77 512.213 347.165 522.523 344.483V344.478Z" fill="#08394A"/>
<path d="M332.009 193.911C332.039 193.911 332.073 193.911 332.102 193.911C333.952 193.911 335.474 192.438 335.523 190.579C336.379 158.381 347.394 128.023 367.378 102.793C368.553 101.31 368.303 99.157 366.821 97.9826C365.338 96.8082 363.18 97.0578 362.01 98.5404C341.101 124.945 329.577 156.707 328.677 190.398C328.628 192.287 330.12 193.862 332.009 193.911Z" fill="#08394A"/>
<path d="M382.426 85.2256C383.239 85.2256 384.056 84.9369 384.711 84.3497C411.874 60.0005 446.945 46.5928 483.459 46.5928C497.714 46.5928 511.811 48.6138 525.351 52.6067C527.162 53.1401 529.07 52.1027 529.604 50.2873C530.137 48.4719 529.1 46.5684 527.284 46.035C513.113 41.861 498.369 39.7422 483.454 39.7422C445.252 39.7422 408.557 53.7713 380.131 79.246C378.722 80.5084 378.605 82.6762 379.867 84.0806C380.542 84.8341 381.482 85.2207 382.417 85.2207L382.426 85.2256Z" fill="#08394A"/>
<path d="M434.638 228.572C433.586 230.143 434.007 232.271 435.577 233.323C436.165 233.715 436.825 233.901 437.481 233.901C438.587 233.901 439.668 233.367 440.329 232.379C441.591 230.49 448.041 229.135 449.91 230.368C451.491 231.41 453.614 230.974 454.657 229.394C455.699 227.813 455.263 225.69 453.683 224.647C448.677 221.344 438 223.542 434.638 228.567V228.572Z" fill="#08394A"/>
<path d="M442.92 155.304C444.775 154.941 445.988 153.146 445.631 151.286C445.269 149.432 443.478 148.218 441.614 148.575C430.594 150.714 418.532 145.996 410.884 136.557C404.498 128.674 402.956 123.849 401.924 116.02C401.674 114.146 399.952 112.825 398.078 113.074C396.203 113.324 394.882 115.041 395.132 116.92C396.453 126.942 398.988 132.76 405.56 140.873C413.286 150.415 424.839 155.935 436.304 155.935C438.521 155.935 440.738 155.729 442.92 155.304Z" fill="#08394A"/>
<path d="M575.615 161.67C576.291 162.537 577.299 162.992 578.321 162.992C579.055 162.992 579.794 162.757 580.421 162.272C581.913 161.113 582.182 158.96 581.023 157.467C562.907 134.16 539.63 114.377 513.705 100.25C512.046 99.3443 509.961 99.9559 509.056 101.62C508.151 103.278 508.762 105.363 510.426 106.268C519.865 111.411 528.943 117.332 537.53 123.914C521.637 127.554 505.327 130.759 489.121 128.949C465.779 126.341 451.863 113.466 446.617 102.295C445.814 100.582 443.774 99.8434 442.061 100.651C440.349 101.453 439.61 103.494 440.417 105.206C448.109 121.609 466.484 133.314 488.362 135.76C491.778 136.142 495.203 136.313 498.623 136.313C514.409 136.313 530.142 132.682 544.347 129.375C555.905 139.014 566.445 149.878 575.615 161.68V161.67Z" fill="#08394A"/>
<path d="M343.672 172.533C344.166 172.783 344.69 172.895 345.203 172.895C346.456 172.895 347.67 172.205 348.267 171.007C355.582 156.424 365.075 143.124 376.487 131.468C377.808 130.118 377.788 127.95 376.438 126.624C375.087 125.303 372.919 125.322 371.593 126.673C359.688 138.838 349.779 152.72 342.145 167.934C341.299 169.627 341.979 171.682 343.672 172.533Z" fill="#08394A"/>
<path d="M342.151 277.54C342.728 277.916 343.379 278.097 344.02 278.097C345.141 278.097 346.237 277.549 346.892 276.546C347.925 274.961 347.48 272.842 345.899 271.805C333.998 264.034 324.633 248.371 322.597 232.839C321.53 224.687 322.024 213.002 330.446 203.626C331.708 202.217 331.591 200.054 330.186 198.787C328.777 197.524 326.614 197.641 325.347 199.046C317.42 207.873 314.029 220.195 315.805 233.73C318.085 251.13 328.674 268.737 342.156 277.54H342.151Z" fill="#08394A"/>
<path d="M425.54 250.083C427.341 267.449 441.277 275.298 453.594 275.298C453.697 275.298 453.804 275.298 453.907 275.298C460.655 275.225 467.051 272.925 471.924 268.824C477.41 264.205 480.644 257.648 481.28 249.858C481.848 242.919 480.17 237.492 480.096 237.267C479.563 235.569 477.816 234.566 476.084 234.953L428.129 245.659C426.455 246.031 425.315 247.587 425.462 249.295C425.486 249.559 425.511 249.824 425.535 250.083H425.54ZM474.205 242.391C474.474 244.177 474.674 246.604 474.454 249.3C473.382 262.385 463.327 268.345 453.834 268.448C444.707 268.56 434.96 263.368 432.689 251.663L474.2 242.395L474.205 242.391Z" fill="#08394A"/>
<path d="M522.895 23.5651C532.276 27.0736 539.244 36.8847 539.459 46.8965C539.499 48.7608 541.025 50.2484 542.885 50.2484C542.909 50.2484 542.934 50.2484 542.963 50.2484C544.857 50.2093 546.354 48.6385 546.315 46.7497C546.036 33.8411 537.394 21.6714 525.298 17.15C523.527 16.4845 521.555 17.3849 520.889 19.1562C520.229 20.9276 521.124 22.8996 522.9 23.5651H522.895Z" fill="#08394A"/>
<path d="M554.151 55.8807C554.704 56.2134 555.316 56.37 555.913 56.37C557.072 56.37 558.208 55.7779 558.849 54.7112C564.388 45.5167 574.449 38.989 585.101 37.6825C586.981 37.4525 588.316 35.7447 588.086 33.8657C587.856 31.9866 586.149 30.6507 584.27 30.8807C571.571 32.4368 559.583 40.2123 552.982 51.1733C552.003 52.793 552.526 54.8971 554.146 55.8758L554.151 55.8807Z" fill="#08394A"/>
<path d="M439.134 459.047C438.757 459.233 438.351 459.389 437.935 459.517C436.942 459.815 436.139 460.549 435.748 461.508C435.356 462.467 435.425 463.554 435.929 464.459L463.782 514.601C464.286 515.506 465.172 516.137 466.194 516.313C466.39 516.348 466.581 516.362 466.777 516.362C467.604 516.362 468.411 516.064 469.037 515.506C469.365 515.217 469.713 514.958 470.065 514.738C476.744 510.559 481.613 504.075 483.786 496.481C486.13 488.289 485.141 479.677 481.002 472.225C472.756 457.383 454.367 451.594 439.129 459.047H439.134ZM477.204 494.597C475.663 499.984 472.394 504.657 467.917 507.931L443.778 464.474C455.39 459.776 468.837 464.425 475.022 475.552C478.271 481.404 479.049 488.167 477.209 494.597H477.204Z" fill="#08394A"/>
<path d="M177.367 622.542C177.367 629.123 182.721 634.476 189.302 634.476C195.884 634.476 201.237 629.123 201.237 622.542C201.237 617.888 194.792 603.58 189.302 592.678C183.812 603.58 177.367 617.888 177.367 622.542Z" fill="#B6E1ED"/>
<path d="M189.289 581.801C188.022 581.801 186.862 582.501 186.265 583.616C184.651 586.645 170.504 613.47 170.504 622.543C170.504 632.902 178.93 641.328 189.289 641.328C199.649 641.328 208.075 632.902 208.075 622.543C208.075 613.465 193.928 586.64 192.314 583.616C191.717 582.501 190.557 581.801 189.289 581.801ZM189.289 634.477C182.708 634.477 177.355 629.124 177.355 622.543C177.355 617.889 183.799 603.581 189.289 592.679C194.78 603.581 201.224 617.889 201.224 622.543C201.224 629.124 195.871 634.477 189.289 634.477Z" fill="#08394A"/>
<path d="M688.181 411.043C678.663 395.463 663.151 382.202 642.076 371.617C620.604 360.837 598.784 355.548 584.266 353.008C569.644 350.449 555.322 348.942 541.698 348.521C539.81 348.467 538.229 349.95 538.17 351.839C538.112 353.727 539.599 355.308 541.488 355.367C554.783 355.778 568.778 357.256 583.086 359.756C597.155 362.217 618.275 367.331 639.003 377.739C658.919 387.736 673.496 400.145 682.333 414.615C698.99 441.886 709.78 489.502 714.409 556.189L630.792 549.656C628.908 549.509 627.259 550.918 627.112 552.802C626.965 554.686 628.374 556.335 630.258 556.482L699.656 561.904C699.034 567.35 698.516 572.914 698.017 578.316C696.783 591.65 695.511 605.44 692.575 618.348C689.008 634.017 679.221 647.787 667.042 654.275C657.49 659.364 646.866 659.907 636.316 655.841C625.057 651.506 615.476 643.706 608.61 633.283L536.927 524.499C536.908 524.47 536.888 524.446 536.869 524.421C537.686 523.668 538.395 522.899 539.056 522.18C540.054 521.089 540.92 520.149 541.982 519.415C543.538 518.339 543.925 516.205 542.848 514.649C541.772 513.093 539.638 512.707 538.082 513.783C536.394 514.953 535.127 516.333 534.011 517.546C531.912 519.831 530.4 521.48 526.47 521.96C522.521 522.444 517.829 520.531 513.278 516.572C509.569 513.348 506.383 509.223 503.917 504.628C503.824 504.388 503.702 504.163 503.555 503.947C500.35 497.738 498.451 490.716 498.324 483.909C498.309 483.17 498.309 482.48 498.309 481.835C498.299 477.166 498.294 473.134 493.122 468.823C492.011 467.898 490.817 467.292 489.77 466.763C489.119 466.435 488.508 466.122 488.023 465.789C485.053 463.744 484.642 459.09 485.963 455.778C487.314 452.387 490.216 449.274 495.094 445.981C496.787 444.841 498.441 443.515 500.041 442.233C503.457 439.498 506.99 436.664 510.689 435.832C515.475 434.756 521.626 436.312 527.151 440.002C533.996 444.567 541.341 452.46 548.397 462.824C554.627 471.975 559.682 482.838 563.42 495.115C563.552 495.609 563.797 496.069 564.159 496.495C566.85 499.656 630.2 574.064 641.498 588.685C642.174 589.556 643.187 590.016 644.209 590.016C644.943 590.016 645.677 589.781 646.304 589.302C647.801 588.147 648.075 585.994 646.92 584.496C635.896 570.228 576.167 500.033 569.801 492.556C565.877 479.853 560.582 468.554 554.059 458.973C546.406 447.728 538.63 439.429 530.953 434.306C527.566 432.045 518.665 427.02 509.182 429.153C503.936 430.332 499.591 433.816 495.755 436.889C494.194 438.142 492.721 439.321 491.263 440.305C489.672 441.377 487.818 442.722 486.017 444.371C469.791 432.035 447.966 429.765 429.455 438.71L418.826 419.582C417.065 416.411 413.052 415.266 409.877 417.023L292.221 482.388C290.684 483.239 289.569 484.643 289.084 486.332C288.6 488.025 288.805 489.801 289.657 491.337L321.733 549.079L237.097 531.942L230.496 520.061C229.576 518.407 227.492 517.81 225.838 518.73L183.402 542.306C182.047 543.06 181.367 544.626 181.744 546.133C182.12 547.635 183.456 548.702 185.008 548.726L211.055 549.186L351.068 601.882L363.669 624.568C364.525 626.104 365.924 627.215 367.613 627.7C368.215 627.871 368.826 627.954 369.433 627.954C370.539 627.954 371.63 627.67 372.623 627.122L490.284 561.762C493.455 559.996 494.605 555.983 492.843 552.812L482.215 533.679C490.318 528.561 496.782 521.563 501.186 513.211C503.418 516.406 505.967 519.303 508.786 521.749C514.819 526.995 521.396 529.486 527.302 528.766C528.697 528.595 529.92 528.306 531.016 527.939C531.075 528.052 531.139 528.165 531.212 528.277L602.895 637.061C610.553 648.682 621.259 657.387 633.86 662.242C639.35 664.355 644.87 665.412 650.292 665.412C657.177 665.412 663.915 663.714 670.271 660.328C684.369 652.817 695.208 637.692 699.264 619.875C702.303 606.531 703.595 592.512 704.848 578.952C705.352 573.506 705.875 567.893 706.497 562.442L717.83 563.328C717.918 563.333 718.006 563.338 718.099 563.338C718.994 563.338 719.86 562.985 720.506 562.349C721.211 561.65 721.583 560.681 721.519 559.687C716.969 489.811 705.758 439.801 688.186 411.038L688.181 411.043ZM478.364 528.008C478.364 528.008 478.335 528.028 478.32 528.037C478.237 528.091 478.153 528.14 478.065 528.189C478.041 528.199 478.021 528.213 477.997 528.228C477.527 528.492 477.018 528.703 476.446 528.874C475.457 529.173 474.655 529.907 474.263 530.866C473.877 531.825 473.94 532.911 474.444 533.816L486.717 555.91L369.521 621.01L356.446 597.464C356.05 596.754 355.418 596.206 354.66 595.922L212.914 542.575C212.547 542.438 212.161 542.365 211.769 542.355L197.882 542.11L226.175 526.393L231.881 536.659C232.37 537.535 233.212 538.152 234.195 538.352L327.658 557.275C328.965 557.539 330.311 557.02 331.103 555.939C331.891 554.862 331.984 553.419 331.333 552.254L295.783 488.255L412.974 423.149L425.242 445.233C425.746 446.138 426.631 446.769 427.654 446.945C428.677 447.121 429.724 446.823 430.502 446.138C431.021 445.678 431.613 445.286 432.244 444.978C448.328 437.11 467.329 438.974 481.535 449.568C480.791 450.708 480.13 451.927 479.602 453.248C476.915 459.986 478.868 467.805 484.143 471.436C485.009 472.033 485.895 472.483 486.683 472.88C487.48 473.281 488.229 473.663 488.743 474.093C491.454 476.349 491.454 477.519 491.463 481.854C491.463 482.539 491.463 483.263 491.483 484.046C491.62 491.494 493.612 499.172 496.983 506.066C493.191 515.183 486.78 522.753 478.369 528.013L478.364 528.008Z" fill="#08394A"/>
<path d="M633.522 432.109C631.701 431.595 629.808 432.657 629.299 434.477L623.143 456.37C623.04 456.732 623.001 457.104 623.02 457.476L626.441 522.464C626.539 524.294 628.051 525.708 629.857 525.708C629.915 525.708 629.979 525.708 630.038 525.708C631.926 525.61 633.38 523.996 633.277 522.107L629.886 457.681L635.89 436.332C636.404 434.512 635.342 432.618 633.522 432.109Z" fill="#08394A"/>
<path d="M469.143 359.521C468.639 359.614 456.66 361.919 441.089 368.828C414.983 380.416 399.765 395.712 391.593 406.497C390.453 408.004 390.746 410.153 392.254 411.298C392.87 411.767 393.599 411.992 394.319 411.992C395.356 411.992 396.379 411.523 397.049 410.637C423.679 375.479 469.872 366.357 470.41 366.255C472.27 365.902 473.493 364.111 473.141 362.257C472.793 360.397 470.997 359.174 469.143 359.526V359.521Z" fill="#08394A"/>
<path d="M390.406 659.116C390.479 659.116 390.548 659.116 390.621 659.111C392.51 658.993 393.944 657.369 393.826 655.48C393.347 647.836 392.207 637.198 391.57 631.537C391.36 629.658 389.667 628.302 387.783 628.518C385.904 628.728 384.553 630.426 384.764 632.305C385.395 637.903 386.52 648.409 386.99 655.906C387.103 657.721 388.61 659.116 390.406 659.116Z" fill="#08394A"/>
<path d="M517.407 449.956C517.011 450.093 507.567 453.415 499.096 459.273C497.54 460.349 497.149 462.483 498.225 464.039C498.891 465.003 499.957 465.516 501.044 465.516C501.714 465.516 502.394 465.321 502.986 464.91C510.635 459.62 519.492 456.488 519.658 456.43C521.444 455.808 522.389 453.856 521.767 452.07C521.146 450.284 519.193 449.339 517.407 449.961V449.956Z" fill="#08394A"/>
<path d="M721.736 276.37C729.267 269.382 732.242 254.971 730.725 244.681C717.513 247.533 708.064 252.285 701.898 259.16C695.048 266.798 692.43 278.175 694.901 288.809C705.686 287.179 714.489 283.098 721.736 276.37Z" fill="#35B46F"/>
<path d="M692.365 296.007C692.487 296.007 692.609 296.002 692.732 295.988C706.365 294.52 717.365 289.744 726.369 281.386C736.968 271.546 739.977 252.124 736.679 239.768C736.219 238.041 734.511 236.96 732.75 237.282C716.254 240.316 704.49 245.978 696.774 254.58C687.74 264.651 684.731 279.977 689.106 293.624C689.566 295.053 690.892 296.002 692.365 296.002V296.007ZM701.872 259.156C708.038 252.281 717.487 247.529 730.699 244.676C732.216 254.962 729.236 269.378 721.71 276.365C714.463 283.094 705.665 287.175 694.875 288.804C692.404 278.171 695.027 266.794 701.872 259.156Z" fill="#08394A"/>
<path d="M759.384 376.976C752.964 371.677 741.166 370.747 732.887 372.939C736.684 383.279 741.592 390.399 747.831 394.656C754.721 399.354 764.131 400.308 772.484 397.313C769.929 388.799 765.623 382.129 759.384 376.976Z" fill="#35B46F"/>
<path d="M763.739 371.691C754.163 363.788 737.32 363.431 727.205 367.63C725.556 368.315 724.71 370.155 725.263 371.853C729.686 385.436 735.803 394.743 743.97 400.312C749.357 403.987 755.939 405.856 762.643 405.856C767.874 405.856 773.173 404.716 778.042 402.411C779.51 401.716 780.288 400.082 779.902 398.502C777.122 387.139 771.837 378.37 763.744 371.691H763.739ZM747.826 394.65C741.587 390.398 736.679 383.274 732.881 372.934C741.161 370.742 752.959 371.671 759.379 376.971C765.618 382.119 769.919 388.793 772.478 397.308C764.126 400.302 754.716 399.348 747.826 394.65Z" fill="#08394A"/>
<path d="M217.867 353.655C217.867 353.655 221.973 315.174 283.541 332.618C283.541 332.618 257.885 379.824 217.867 353.655Z" fill="#CEE799"/>
<path d="M227.987 356.571C227.102 356.571 226.221 356.234 225.55 355.554C224.224 354.208 224.234 352.045 225.575 350.714C226.069 350.225 237.74 338.823 251.206 338.823C251.285 338.823 251.358 338.823 251.431 338.823C253.325 338.843 254.842 340.389 254.822 342.283C254.803 344.162 253.276 345.674 251.397 345.674C251.333 345.674 251.265 345.674 251.201 345.674C240.578 345.674 230.488 355.485 230.39 355.583C229.724 356.239 228.853 356.566 227.982 356.566L227.987 356.571Z" fill="#A8D447"/>
<path d="M236.027 300.513C244.35 297.043 249.968 293.27 253.697 288.651C257.308 284.179 258.83 277.759 257.763 272.405C256.946 272.581 256.075 272.762 255.253 272.939C253.79 273.247 252.41 273.541 251.96 273.648C245.314 275.214 238.885 276.951 233.208 280.9C223.857 287.403 217.535 296.94 215.406 304.437C218.347 303.723 221.528 303.292 224.65 302.876C228.809 302.318 233.11 301.736 236.032 300.517L236.027 300.513Z" fill="#CEE799"/>
<path d="M183.252 296.544C187.964 299.128 192.545 300.292 194.394 299.382C194.644 299.26 195.314 298.927 195.588 297.156C196.401 291.925 190.166 284.585 184.025 279.98C178.51 275.84 172.051 273.012 165.484 270.551C166.903 274.784 168.504 278.972 170.583 282.833C173.96 289.111 178.339 293.853 183.247 296.544H183.252Z" fill="#CEE799"/>
<path d="M222.111 250.43C222.659 250.43 223.3 250.444 223.981 250.527C224.998 244.215 224.856 237.643 223.57 231.365C220.878 232.882 218.045 234.702 215.73 236.978C212.956 239.708 211.204 242.909 210.793 245.991C210.695 246.735 210.362 247.386 209.883 247.89C213.685 249.519 217.795 250.395 221.95 250.43H222.111Z" fill="#F3C7C5"/>
<path d="M172.084 352.206C174.746 352.701 177.697 352.813 180.824 352.926C188.076 353.2 196.13 353.503 203.079 358.744C202.873 355.275 202.741 351.712 202.687 348.062C202.335 348.615 201.821 349.075 201.175 349.354C199.443 350.112 197.422 349.319 196.663 347.587C194.124 341.779 189.451 336.582 183.505 332.956C180.657 331.219 177.829 330.025 175.098 329.399C167.832 327.735 162.885 329.056 157.644 330.451C154.125 331.39 150.314 332.408 145.738 332.472C146.316 333.171 146.888 333.866 147.451 334.556C154.801 343.511 160.11 349.985 172.084 352.202V352.206Z" fill="#CEE799"/>
<path d="M221.422 259.953C222.141 259.141 222.827 258.29 223.008 257.566C223.027 257.477 223.037 257.385 223.032 257.311C222.758 257.287 222.357 257.282 222.068 257.282H221.897C216.95 257.238 212.051 256.225 207.501 254.326C207.227 256.401 207.153 258.441 207.579 260.345C208.465 264.279 210.295 264.749 210.897 264.901C213.72 265.62 218.344 263.452 221.422 259.958V259.953Z" fill="#CEE799"/>
<path d="M142.12 338.906C149.763 348.222 156.365 356.267 170.8 358.944C173.956 359.531 177.298 359.653 180.528 359.776C188.582 360.079 196.187 360.363 201.966 367.101C202.47 367.688 203.125 368.06 203.82 368.212C206.125 389.918 211.738 407.554 220.629 420.888C221.29 421.877 222.376 422.415 223.482 422.415C224.133 422.415 224.793 422.229 225.38 421.838C226.956 420.79 227.382 418.662 226.33 417.086C209.908 392.453 208.381 354.466 209.986 326.932C210.27 322.102 210.656 317.414 211.106 312.947C211.126 312.947 211.146 312.947 211.165 312.947C211.703 312.947 212.242 312.819 212.736 312.565C215.873 310.95 220.786 310.289 225.542 309.648C230.142 309.032 234.893 308.391 238.646 306.825C244.572 304.354 253.131 300.224 259.012 292.943C264.444 286.214 266.323 276.516 263.862 268.711C263.925 268.222 263.871 267.825 263.842 267.654C263.818 267.522 263.221 264.375 259.575 264.904C259.233 264.953 258.9 265.056 258.596 265.202C257.398 265.472 255.249 265.927 253.821 266.23C252.186 266.577 250.899 266.847 250.371 266.974C243.349 268.633 235.94 270.634 229.28 275.268C223.766 279.104 218.07 284.947 213.925 291.45C215.814 279.662 217.6 272.131 217.634 271.999C217.737 271.569 217.752 271.143 217.693 270.727C221.153 269.372 224.333 266.988 226.54 264.483C227.837 263.015 229.104 261.361 229.638 259.208C230.073 257.437 229.858 255.631 229.129 254.129C229.936 253.625 230.533 252.793 230.699 251.78C232.021 243.711 231.659 235.26 229.647 227.338C229.505 226.775 229.168 225.459 227.964 224.48C227.059 223.746 225.101 222.748 222.141 224.328C218.53 226.256 214.365 228.688 210.901 232.099C208.175 234.781 204.76 239.214 203.977 245.086C203.938 245.38 203.943 245.668 203.977 245.947C203.81 245.996 203.644 246.05 203.483 246.123C202.48 246.578 201.755 247.489 201.54 248.57C200.733 252.607 199.822 257.182 200.87 261.846C202.44 268.828 206.747 270.913 209.174 271.534C209.658 271.657 210.152 271.745 210.647 271.803C209.379 277.494 204.716 299.818 203.155 326.418C202.793 332.574 202.617 338.509 202.621 344.234C199.475 337.398 193.965 331.336 187.031 327.108C183.552 324.989 180.039 323.511 176.584 322.718C167.658 320.673 161.375 322.351 155.836 323.829C150.297 325.307 145.516 326.584 138.137 324.681C136.669 324.299 135.118 324.935 134.34 326.242C133.562 327.548 133.733 329.212 134.77 330.328C137.496 333.268 139.845 336.131 142.12 338.906ZM233.19 280.895C238.866 276.946 245.301 275.214 251.941 273.643C252.392 273.536 253.776 273.247 255.235 272.934C256.057 272.758 256.928 272.577 257.745 272.4C258.817 277.749 257.29 284.174 253.679 288.646C249.95 293.27 244.332 297.038 236.009 300.508C233.087 301.726 228.786 302.304 224.627 302.866C221.51 303.287 218.324 303.713 215.383 304.427C217.512 296.931 223.834 287.394 233.185 280.89L233.19 280.895ZM210.774 245.991C211.185 242.908 212.937 239.708 215.711 236.978C218.021 234.702 220.859 232.882 223.55 231.365C224.837 237.643 224.979 244.215 223.961 250.527C223.281 250.439 222.64 250.429 222.092 250.429H221.931C217.776 250.395 213.666 249.519 209.864 247.89C210.343 247.386 210.676 246.73 210.774 245.991ZM207.559 260.343C207.128 258.44 207.202 256.399 207.481 254.325C212.026 256.228 216.925 257.241 221.877 257.28H222.048C222.342 257.28 222.738 257.285 223.012 257.309C223.012 257.388 223.012 257.476 222.988 257.564C222.811 258.283 222.121 259.135 221.402 259.952C218.324 263.446 213.7 265.618 210.876 264.894C210.275 264.742 208.444 264.273 207.559 260.338V260.343ZM157.607 330.455C162.843 329.055 167.791 327.734 175.062 329.403C177.793 330.029 180.626 331.228 183.469 332.96C189.419 336.586 194.092 341.783 196.627 347.591C197.386 349.323 199.402 350.116 201.139 349.358C201.785 349.074 202.298 348.619 202.651 348.066C202.705 351.721 202.837 355.279 203.042 358.748C196.094 353.507 188.039 353.204 180.787 352.93C177.665 352.812 174.715 352.7 172.048 352.211C160.074 349.989 154.764 343.52 147.415 334.565C146.852 333.875 146.279 333.18 145.702 332.481C150.277 332.412 154.089 331.399 157.607 330.46V330.455Z" fill="#08394A"/>
<path d="M251.083 325.69C237.411 326.722 225.638 331.987 217.94 340.512C213.854 345.033 212.509 349.941 214.246 353.968C214.995 355.705 217.011 356.508 218.748 355.759C220.485 355.01 221.287 352.994 220.539 351.257C219.81 349.564 221.346 346.971 223.025 345.106C229.543 337.894 239.691 333.426 251.602 332.526C261.026 331.816 270.637 333.313 279.831 335.334C273.935 341.891 268.254 348.042 260.738 352.564C250.995 358.426 240.533 360.085 232.028 357.124C230.242 356.503 228.29 357.447 227.668 359.233C227.047 361.019 227.991 362.972 229.777 363.593C233.266 364.807 236.99 365.404 240.836 365.404C248.494 365.404 256.622 363.031 264.271 358.431C273.03 353.161 279.23 346.256 285.792 338.951C286.3 338.388 286.809 337.82 287.323 337.248C287.397 337.223 287.47 337.194 287.543 337.165C289.021 336.553 289.936 335.075 289.809 333.499C289.701 332.085 288.737 330.373 286.364 329.805C275.173 327.128 263.155 324.78 251.093 325.69H251.083Z" fill="#08394A"/>
<path d="M164.552 286.078C168.555 293.526 173.884 299.221 179.956 302.549C183.024 304.232 188.069 306.532 192.718 306.532C194.372 306.532 195.972 306.243 197.416 305.529C199.295 304.604 201.673 302.583 202.353 298.208C204.08 287.091 190.81 276.507 188.133 274.5C179.956 268.364 170.448 264.998 161.249 261.739C160.026 261.303 158.665 261.602 157.731 262.497C156.796 263.397 156.449 264.743 156.835 265.981C158.92 272.69 161.078 279.624 164.547 286.073L164.552 286.078ZM184.028 279.981C190.164 284.585 196.403 291.925 195.59 297.156C195.316 298.928 194.646 299.261 194.397 299.383C192.547 300.293 187.967 299.124 183.254 296.545C178.341 293.853 173.962 289.112 170.59 282.834C168.511 278.973 166.911 274.784 165.492 270.551C172.058 273.013 178.518 275.841 184.032 279.981H184.028Z" fill="#08394A"/>
</g>
<defs>
<clipPath id="clip0_227_1076">
<rect width="780" height="673.477" fill="white"/>
</clipPath>
</defs>
</svg>
