<svg width="201" height="74" viewBox="0 0 201 74" fill="none" xmlns="http://www.w3.org/2000/svg">
<path d="M93.8117 32.885C94.4168 31.9018 95.2866 31.1076 96.4211 30.5025C97.5557 29.8974 98.8541 29.5948 100.316 29.5948C102.056 29.5948 103.632 30.0361 105.044 30.9185C106.456 31.8009 107.565 33.0615 108.372 34.7003C109.204 36.3391 109.62 38.2426 109.62 40.4109C109.62 42.5791 109.204 44.4953 108.372 46.1593C107.565 47.798 106.456 49.0713 105.044 49.9789C103.632 50.8613 102.056 51.3025 100.316 51.3025C98.8289 51.3025 97.5305 51.0126 96.4211 50.4327C95.3118 49.8276 94.442 49.0334 93.8117 48.0502V51H87.3447V23.0145H93.8117V32.885ZM103.039 40.4109C103.039 38.7973 102.586 37.5367 101.678 36.629C100.795 35.6962 99.6987 35.2298 98.3877 35.2298C97.1019 35.2298 96.0051 35.6962 95.0975 36.629C94.2151 37.5619 93.7738 38.8351 93.7738 40.4487C93.7738 42.0623 94.2151 43.3355 95.0975 44.2683C96.0051 45.2012 97.1019 45.6676 98.3877 45.6676C99.6735 45.6676 100.77 45.2012 101.678 44.2683C102.586 43.3103 103.039 42.0245 103.039 40.4109ZM131.905 40.1083C131.905 40.7134 131.867 41.3437 131.791 41.9992H117.156C117.257 43.3103 117.673 44.3188 118.404 45.0247C119.16 45.7054 120.08 46.0458 121.164 46.0458C122.778 46.0458 123.9 45.3651 124.53 44.0036H131.413C131.06 45.3903 130.417 46.6383 129.484 47.7476C128.577 48.857 127.43 49.7268 126.043 50.3571C124.656 50.9874 123.106 51.3025 121.391 51.3025C119.324 51.3025 117.483 50.8613 115.87 49.9789C114.256 49.0965 112.996 47.8359 112.088 46.1971C111.18 44.5583 110.727 42.6422 110.727 40.4487C110.727 38.2552 111.168 36.3391 112.05 34.7003C112.958 33.0615 114.219 31.8009 115.832 30.9185C117.446 30.0361 119.299 29.5948 121.391 29.5948C123.434 29.5948 125.249 30.0234 126.837 30.8807C128.426 31.7379 129.661 32.9607 130.543 34.549C131.451 36.1374 131.905 37.9905 131.905 40.1083ZM125.287 38.4065C125.287 37.2972 124.908 36.4147 124.152 35.7592C123.396 35.1037 122.45 34.7759 121.316 34.7759C120.232 34.7759 119.311 35.0911 118.555 35.7214C117.824 36.3517 117.37 37.2467 117.194 38.4065H125.287ZM154.209 40.1083C154.209 40.7134 154.171 41.3437 154.095 41.9992H139.46C139.561 43.3103 139.977 44.3188 140.708 45.0247C141.464 45.7054 142.384 46.0458 143.469 46.0458C145.082 46.0458 146.204 45.3651 146.834 44.0036H153.717C153.364 45.3903 152.721 46.6383 151.789 47.7476C150.881 48.857 149.734 49.7268 148.347 50.3571C146.96 50.9874 145.41 51.3025 143.695 51.3025C141.628 51.3025 139.788 50.8613 138.174 49.9789C136.56 49.0965 135.3 47.8359 134.392 46.1971C133.484 44.5583 133.031 42.6422 133.031 40.4487C133.031 38.2552 133.472 36.3391 134.354 34.7003C135.262 33.0615 136.523 31.8009 138.136 30.9185C139.75 30.0361 141.603 29.5948 143.695 29.5948C145.738 29.5948 147.553 30.0234 149.141 30.8807C150.73 31.7379 151.965 32.9607 152.847 34.549C153.755 36.1374 154.209 37.9905 154.209 40.1083ZM147.591 38.4065C147.591 37.2972 147.213 36.4147 146.456 35.7592C145.7 35.1037 144.754 34.7759 143.62 34.7759C142.536 34.7759 141.615 35.0911 140.859 35.7214C140.128 36.3517 139.674 37.2467 139.498 38.4065H147.591ZM155.335 40.4487C155.335 38.2552 155.776 36.3391 156.658 34.7003C157.566 33.0615 158.814 31.8009 160.402 30.9185C162.016 30.0361 163.856 29.5948 165.924 29.5948C168.571 29.5948 170.777 30.2882 172.542 31.6748C174.332 33.0615 175.504 35.0155 176.059 37.5367H169.176C168.596 35.9231 167.474 35.1163 165.81 35.1163C164.625 35.1163 163.68 35.5827 162.974 36.5156C162.268 37.4232 161.915 38.7343 161.915 40.4487C161.915 42.1631 162.268 43.4868 162.974 44.4196C163.68 45.3273 164.625 45.7811 165.81 45.7811C167.474 45.7811 168.596 44.9743 169.176 43.3607H176.059C175.504 45.8315 174.332 47.7728 172.542 49.1847C170.752 50.5966 168.546 51.3025 165.924 51.3025C163.856 51.3025 162.016 50.8613 160.402 49.9789C158.814 49.0965 157.566 47.8359 156.658 46.1971C155.776 44.5583 155.335 42.6422 155.335 40.4487ZM188.124 51.3025C186.057 51.3025 184.191 50.8613 182.527 49.9789C180.888 49.0965 179.59 47.8359 178.632 46.1971C177.699 44.5583 177.233 42.6422 177.233 40.4487C177.233 38.2804 177.712 36.3769 178.67 34.7381C179.628 33.0741 180.939 31.8009 182.603 30.9185C184.267 30.0361 186.132 29.5948 188.2 29.5948C190.267 29.5948 192.133 30.0361 193.797 30.9185C195.461 31.8009 196.772 33.0741 197.73 34.7381C198.688 36.3769 199.167 38.2804 199.167 40.4487C199.167 42.6169 198.676 44.5331 197.692 46.1971C196.734 47.8359 195.411 49.0965 193.721 49.9789C192.057 50.8613 190.192 51.3025 188.124 51.3025ZM188.124 45.7054C189.36 45.7054 190.406 45.2516 191.263 44.344C192.146 43.4363 192.587 42.1379 192.587 40.4487C192.587 38.7595 192.158 37.461 191.301 36.5534C190.469 35.6458 189.435 35.1919 188.2 35.1919C186.939 35.1919 185.893 35.6458 185.061 36.5534C184.229 37.4358 183.813 38.7343 183.813 40.4487C183.813 42.1379 184.216 43.4363 185.023 44.344C185.855 45.2516 186.889 45.7054 188.124 45.7054Z" fill="#08394A"/>
<g clip-path="url(#clip0_227_1055)">
<path fill-rule="evenodd" clip-rule="evenodd" d="M27.5547 5.88696C27.6889 6.88748 28.1442 7.8071 28.8583 8.52484L32.098 11.7739L35.5719 8.29013C36.1637 7.61164 36.5392 6.77934 36.659 5.88776C36.5384 4.99539 36.1629 4.16389 35.5719 3.48379L32.098 0L28.8583 3.24909C28.1442 3.96523 27.6889 4.88644 27.5547 5.88696Z" fill="#50B964"/>
<path fill-rule="evenodd" clip-rule="evenodd" d="M56.6468 17.5815C55.8496 18.1991 55.2833 19.0531 55.0213 20.0336L53.8359 24.4714L58.5806 25.7467C59.4624 25.9197 60.369 25.8308 61.1997 25.4888C61.9098 24.9384 62.4394 24.1974 62.7318 23.3435L64.0026 18.5844L59.5766 17.3957C58.6006 17.1329 57.5789 17.1986 56.6476 17.5815" fill="#50B964"/>
<path fill-rule="evenodd" clip-rule="evenodd" d="M61.0902 48.6955C60.1572 48.311 59.1356 48.2461 58.1595 48.508L53.7344 49.6976L55.0052 54.4559C55.296 55.309 55.8279 56.0508 56.5372 56.6019C57.3671 56.9431 58.2729 57.0329 59.1564 56.8598L63.9018 55.5846L62.7141 51.1459C62.4521 50.167 61.8857 49.3131 61.0894 48.6955" fill="#50B964"/>
<path fill-rule="evenodd" clip-rule="evenodd" d="M21.6355 6.14875C21.0636 7.52577 20.7656 9.01012 20.7656 10.5225C20.7656 13.5505 21.9534 16.4231 24.0877 18.5643L32.0002 26.4996C34.1457 23.3899 33.8541 19.0618 31.0856 16.3037L23.7234 8.96927C22.8847 8.13377 22.1834 7.18131 21.6363 6.14795" fill="#50B964"/>
<path fill-rule="evenodd" clip-rule="evenodd" d="M53.4584 12.5716C51.9839 12.7647 50.5533 13.2477 49.2473 14.0031C46.633 15.5171 44.7447 17.9843 43.9635 20.9082L41.0664 31.7497C44.8246 32.0573 48.4174 29.6405 49.4135 25.8571L52.0662 15.7951C52.3689 14.6495 52.8394 13.5633 53.4584 12.5708" fill="#50B964"/>
<path fill-rule="evenodd" clip-rule="evenodd" d="M63.8239 43.4218C62.9205 42.2379 61.7879 41.2357 60.4819 40.4795C57.8676 38.9672 54.7931 38.5602 51.8776 39.3445L41.0664 42.2491C42.6799 45.6672 46.5635 47.5777 50.3289 46.5524L60.3437 43.8248C61.4844 43.514 62.6569 43.381 63.8247 43.4218" fill="#50B964"/>
<path fill-rule="evenodd" clip-rule="evenodd" d="M42.3658 6.14893C42.937 7.52594 43.2349 9.0103 43.2349 10.5227C43.2349 13.5507 42.0495 16.4233 39.9144 18.5645L37.356 21.1303C37.1947 18.7391 36.3208 16.4 34.7656 14.4607L40.2787 8.97025C41.1174 8.13474 41.8187 7.18229 42.3658 6.14893Z" fill="#50B964"/>
<path fill-rule="evenodd" clip-rule="evenodd" d="M63.8237 30.5762C62.9203 31.7617 61.7876 32.7623 60.4817 33.5185C57.8673 35.0324 54.7929 35.4386 51.8774 34.6543L48.3828 33.7155C50.3645 32.3794 51.9477 30.452 52.8447 28.1313L60.3435 30.1732C61.4841 30.4833 62.6567 30.617 63.8245 30.5762" fill="#50B964"/>
<path fill-rule="evenodd" clip-rule="evenodd" d="M53.4584 61.4281C51.9839 61.235 50.5533 60.7504 49.2473 59.995C46.633 58.481 44.7447 56.0146 43.9635 53.0907L43.0273 49.5845C45.1728 50.6387 47.6274 51.0504 50.0804 50.6691L52.0669 58.2022C52.3697 59.3486 52.8401 60.434 53.4592 61.4273" fill="#50B964"/>
<path fill-rule="evenodd" clip-rule="evenodd" d="M36.448 68.113C36.3138 67.1117 35.8602 66.1921 35.1445 65.4752L31.9039 62.2261L28.4293 65.7091C27.8398 66.3892 27.4644 67.2207 27.3438 68.113C27.4644 69.0038 27.8398 69.8361 28.4293 70.5154L31.9039 73.9992L35.1445 70.7501C35.8602 70.0324 36.3138 69.1128 36.448 68.1122" fill="#50B964"/>
<path fill-rule="evenodd" clip-rule="evenodd" d="M7.3558 56.4176C8.15296 55.8 8.71929 54.946 8.98208 53.9671L10.1674 49.5285L5.422 48.2532C4.54016 48.0794 3.63357 48.1699 2.80286 48.5112C2.09276 49.0623 1.56318 49.8033 1.27163 50.6572L0 55.4155L4.42594 56.605C5.40283 56.8678 6.42364 56.8013 7.355 56.4176" fill="#50B964"/>
<path fill-rule="evenodd" clip-rule="evenodd" d="M2.9101 25.3045C3.84065 25.6882 4.86227 25.7531 5.83916 25.4903L10.2651 24.3015L8.99347 19.5425C8.70192 18.6901 8.17154 17.9476 7.46224 17.3964C6.63233 17.0552 5.72493 16.9663 4.8439 17.1393L0.0976562 18.4138L1.28302 22.8524C1.54501 23.8321 2.11213 24.6868 2.9101 25.3045Z" fill="#50B964"/>
<path fill-rule="evenodd" clip-rule="evenodd" d="M42.3644 67.8496C42.9355 66.4725 43.2334 64.9882 43.2334 63.4766C43.2334 60.4486 42.0481 57.5752 39.913 55.4348L31.9988 47.4995C29.8534 50.6092 30.1457 54.9365 32.9142 57.6954L40.2764 65.0282C41.1151 65.8629 41.8164 66.8162 42.3636 67.8496" fill="#50B964"/>
<path fill-rule="evenodd" clip-rule="evenodd" d="M10.543 61.428C12.0175 61.2349 13.4489 60.7511 14.754 59.9949C17.3684 58.4809 19.2567 56.0144 20.0371 53.0906L22.9334 42.2491C19.1752 41.9407 15.5832 44.3583 14.5863 48.1416L11.9344 58.2029C11.6333 59.3492 11.1612 60.4347 10.543 61.428Z" fill="#50B964"/>
<path fill-rule="evenodd" clip-rule="evenodd" d="M0.17658 30.5764C1.07838 31.762 2.21262 32.7625 3.5186 33.5187C6.13295 35.0327 9.20658 35.4388 12.1229 34.6546L22.9317 31.75C21.3182 28.3311 17.4346 26.4213 13.6693 27.4467L3.65439 30.1735C2.51456 30.4835 1.34197 30.6173 0.175781 30.5764" fill="#50B964"/>
<path fill-rule="evenodd" clip-rule="evenodd" d="M21.6355 67.8497C21.0636 66.4727 20.7656 64.9883 20.7656 63.4767C20.7656 60.4487 21.9534 57.5753 24.0877 55.4349L26.6469 52.8691C26.8083 55.2595 27.6797 57.5978 29.2357 59.5371L23.7226 65.0276C22.8839 65.8623 22.1826 66.8155 21.6355 67.8489" fill="#50B964"/>
<path fill-rule="evenodd" clip-rule="evenodd" d="M0.175781 43.4218C1.07758 42.2379 2.21183 41.2357 3.5178 40.4795C6.13215 38.9672 9.20578 38.5602 12.1221 39.3445L15.6166 40.2833C13.6325 41.6195 12.0494 43.546 11.1532 45.8667L3.65439 43.8248C2.51456 43.514 1.34197 43.381 0.175781 43.4218Z" fill="#50B964"/>
<path fill-rule="evenodd" clip-rule="evenodd" d="M10.543 12.5716C12.0175 12.7631 13.4489 13.2469 14.754 14.0031C17.3684 15.5171 19.2567 17.9835 20.0371 20.9082L20.9748 24.4128C18.8293 23.3586 16.3723 22.9469 13.9193 23.329L11.9344 15.7951C11.6333 14.6495 11.1612 13.5633 10.543 12.5708" fill="#50B964"/>
</g>
<defs>
<clipPath id="clip0_227_1055">
<rect width="64" height="74" fill="white"/>
</clipPath>
</defs>
</svg>
